<svg xmlns="http://www.w3.org/2000/svg" xmlns:xlink="http://www.w3.org/1999/xlink" width="700" zoomAndPan="magnify" viewBox="0 0 525 30.000001" height="40" preserveAspectRatio="xMidYMid meet" version="1.0"><defs><g/><clipPath id="3d147a1d43"><path d="M 9.917969 1.121094 L 52.65625 1.121094 L 52.65625 27.832031 L 9.917969 27.832031 Z M 9.917969 1.121094 " clip-rule="nonzero"/></clipPath><clipPath id="9844c23bfc"><path d="M 14 10.3125 L 19 10.3125 L 19 17 L 14 17 Z M 14 10.3125 " clip-rule="nonzero"/></clipPath><clipPath id="f5ef594545"><path d="M 12.722656 11 L 50.117188 11 L 50.117188 17.945312 L 12.722656 17.945312 Z M 12.722656 11 " clip-rule="nonzero"/></clipPath><clipPath id="25c506aa1a"><path d="M 56.8125 1.121094 L 99.546875 1.121094 L 99.546875 27.832031 L 56.8125 27.832031 Z M 56.8125 1.121094 " clip-rule="nonzero"/></clipPath><clipPath id="fb7ae7c0c9"><path d="M 103.707031 1.121094 L 146.441406 1.121094 L 146.441406 27.832031 L 103.707031 27.832031 Z M 103.707031 1.121094 " clip-rule="nonzero"/></clipPath><clipPath id="118f7fa479"><path d="M 150.597656 1.121094 L 193.335938 1.121094 L 193.335938 27.832031 L 150.597656 27.832031 Z M 150.597656 1.121094 " clip-rule="nonzero"/></clipPath><clipPath id="b7423c72d3"><path d="M 197.492188 1.121094 L 240.226562 1.121094 L 240.226562 27.832031 L 197.492188 27.832031 Z M 197.492188 1.121094 " clip-rule="nonzero"/></clipPath><clipPath id="dc64a2d0ad"><path d="M 244.386719 1.121094 L 287.121094 1.121094 L 287.121094 27.832031 L 244.386719 27.832031 Z M 244.386719 1.121094 " clip-rule="nonzero"/></clipPath><clipPath id="a3a90ac577"><path d="M 127 8.535156 L 143.597656 8.535156 L 143.597656 19.984375 L 127 19.984375 Z M 127 8.535156 " clip-rule="nonzero"/></clipPath><clipPath id="a5d6692433"><path d="M 106.964844 10 L 127 10 L 127 19.984375 L 106.964844 19.984375 Z M 106.964844 10 " clip-rule="nonzero"/></clipPath><clipPath id="717db56cc2"><path d="M 186 11 L 190.816406 11 L 190.816406 20 L 186 20 Z M 186 11 " clip-rule="nonzero"/></clipPath><clipPath id="9f4ef61993"><path d="M 153.425781 10.3125 L 187 10.3125 L 187 20.234375 L 153.425781 20.234375 Z M 153.425781 10.3125 " clip-rule="nonzero"/></clipPath><clipPath id="b55e568143"><path d="M 253 22 L 279.894531 22 L 279.894531 26.273438 L 253 26.273438 Z M 253 22 " clip-rule="nonzero"/></clipPath><clipPath id="6893f4b9fb"><path d="M 278 18 L 279.894531 18 L 279.894531 19 L 278 19 Z M 278 18 " clip-rule="nonzero"/></clipPath><clipPath id="abab37031c"><path d="M 251.660156 4.144531 L 266 4.144531 L 266 22 L 251.660156 22 Z M 251.660156 4.144531 " clip-rule="nonzero"/></clipPath><clipPath id="178aad0120"><path d="M 265 4.144531 L 279.894531 4.144531 L 279.894531 22 L 265 22 Z M 265 4.144531 " clip-rule="nonzero"/></clipPath><clipPath id="170135a308"><path d="M 291.28125 1.121094 L 334.015625 1.121094 L 334.015625 27.832031 L 291.28125 27.832031 Z M 291.28125 1.121094 " clip-rule="nonzero"/></clipPath><clipPath id="ad1856486c"><path d="M 293 7.527344 L 307.304688 7.527344 L 307.304688 22 L 293 22 Z M 293 7.527344 " clip-rule="nonzero"/></clipPath></defs><g clip-path="url(#3d147a1d43)"><path fill="#d8d8d8" d="M 11.359375 1.121094 L 51.214844 1.121094 C 51.59375 1.121094 51.960938 1.273438 52.230469 1.542969 C 52.5 1.8125 52.652344 2.179688 52.652344 2.558594 L 52.652344 26.398438 C 52.652344 26.777344 52.5 27.144531 52.230469 27.414062 C 51.960938 27.679688 51.59375 27.832031 51.214844 27.832031 L 11.359375 27.832031 C 10.980469 27.832031 10.613281 27.679688 10.34375 27.414062 C 10.074219 27.144531 9.921875 26.777344 9.921875 26.398438 L 9.921875 2.558594 C 9.921875 2.179688 10.074219 1.8125 10.34375 1.542969 C 10.613281 1.273438 10.980469 1.121094 11.359375 1.121094 " fill-opacity="1" fill-rule="nonzero"/></g><g clip-path="url(#9844c23bfc)"><path fill="#3395ff" d="M 15.144531 12.320312 L 14.835938 13.425781 L 16.613281 12.3125 L 15.449219 16.507812 L 16.632812 16.507812 L 18.347656 10.3125 " fill-opacity="1" fill-rule="nonzero"/></g><g clip-path="url(#f5ef594545)"><path fill="#072654" d="M 13.234375 14.746094 L 12.746094 16.507812 L 15.164062 16.507812 L 16.152344 12.921875 Z M 21.636719 13.191406 C 21.578125 13.40625 21.464844 13.5625 21.292969 13.660156 C 21.125 13.761719 20.886719 13.8125 20.578125 13.8125 L 19.605469 13.8125 L 19.945312 12.574219 L 20.921875 12.574219 C 21.230469 12.574219 21.441406 12.625 21.554688 12.726562 C 21.667969 12.828125 21.695312 12.980469 21.636719 13.195312 M 22.648438 13.167969 C 22.773438 12.722656 22.71875 12.378906 22.492188 12.140625 C 22.265625 11.902344 21.867188 11.78125 21.300781 11.78125 L 19.125 11.78125 L 17.8125 16.511719 L 18.871094 16.511719 L 19.398438 14.605469 L 20.09375 14.605469 C 20.25 14.605469 20.371094 14.628906 20.460938 14.675781 C 20.550781 14.726562 20.601562 14.8125 20.621094 14.9375 L 20.808594 16.511719 L 21.941406 16.511719 L 21.757812 15.042969 C 21.71875 14.714844 21.566406 14.523438 21.292969 14.464844 C 21.640625 14.367188 21.929688 14.207031 22.164062 13.980469 C 22.402344 13.753906 22.5625 13.484375 22.648438 13.171875 M 25.21875 14.816406 C 25.128906 15.136719 24.996094 15.378906 24.8125 15.550781 C 24.625 15.71875 24.40625 15.804688 24.148438 15.804688 C 23.886719 15.804688 23.710938 15.722656 23.617188 15.554688 C 23.523438 15.390625 23.519531 15.148438 23.609375 14.835938 C 23.695312 14.519531 23.835938 14.273438 24.023438 14.097656 C 24.214844 13.917969 24.441406 13.832031 24.695312 13.832031 C 24.953125 13.832031 25.128906 13.917969 25.21875 14.085938 C 25.308594 14.257812 25.308594 14.503906 25.222656 14.820312 Z M 25.683594 13.144531 L 25.550781 13.621094 C 25.492188 13.449219 25.382812 13.3125 25.21875 13.210938 C 25.054688 13.109375 24.851562 13.058594 24.609375 13.058594 C 24.308594 13.058594 24.023438 13.132812 23.75 13.28125 C 23.476562 13.429688 23.234375 13.640625 23.03125 13.910156 C 22.824219 14.179688 22.675781 14.488281 22.578125 14.832031 C 22.484375 15.179688 22.464844 15.484375 22.523438 15.746094 C 22.582031 16.011719 22.707031 16.214844 22.898438 16.355469 C 23.089844 16.496094 23.335938 16.566406 23.636719 16.566406 C 23.878906 16.570312 24.113281 16.519531 24.332031 16.421875 C 24.550781 16.328125 24.734375 16.191406 24.890625 16.015625 L 24.753906 16.515625 L 25.777344 16.515625 L 26.710938 13.144531 Z M 30.386719 13.144531 L 27.414062 13.144531 L 27.203125 13.894531 L 28.933594 13.894531 L 26.648438 15.808594 L 26.453125 16.511719 L 29.523438 16.511719 L 29.730469 15.761719 L 27.875 15.761719 L 30.199219 13.820312 M 33.007812 14.8125 C 32.914062 15.144531 32.777344 15.394531 32.597656 15.554688 C 32.417969 15.71875 32.199219 15.800781 31.941406 15.800781 C 31.40625 15.800781 31.230469 15.472656 31.414062 14.8125 C 31.503906 14.484375 31.640625 14.238281 31.824219 14.070312 C 32.007812 13.90625 32.230469 13.820312 32.492188 13.820312 C 32.746094 13.820312 32.917969 13.90625 33.007812 14.070312 C 33.097656 14.238281 33.097656 14.484375 33.007812 14.8125 M 33.605469 13.269531 C 33.371094 13.128906 33.070312 13.058594 32.703125 13.058594 C 32.332031 13.058594 31.988281 13.128906 31.671875 13.269531 C 31.351562 13.410156 31.082031 13.617188 30.863281 13.878906 C 30.640625 14.144531 30.480469 14.457031 30.382812 14.8125 C 30.285156 15.164062 30.273438 15.476562 30.347656 15.738281 C 30.421875 16.003906 30.582031 16.210938 30.816406 16.351562 C 31.054688 16.492188 31.359375 16.5625 31.730469 16.5625 C 32.097656 16.5625 32.441406 16.492188 32.753906 16.351562 C 33.066406 16.207031 33.335938 16.003906 33.558594 15.738281 C 33.78125 15.472656 33.941406 15.164062 34.039062 14.808594 C 34.136719 14.453125 34.148438 14.144531 34.074219 13.878906 C 34 13.613281 33.84375 13.410156 33.609375 13.265625 M 37.257812 14.042969 L 37.519531 13.128906 C 37.429688 13.082031 37.316406 13.058594 37.167969 13.058594 C 36.933594 13.058594 36.710938 13.117188 36.492188 13.230469 C 36.304688 13.328125 36.148438 13.460938 36.015625 13.632812 L 36.148438 13.140625 L 35.125 13.140625 L 34.183594 16.507812 L 35.21875 16.507812 L 35.707031 14.75 C 35.78125 14.492188 35.90625 14.289062 36.089844 14.148438 C 36.273438 14.003906 36.503906 13.933594 36.78125 13.933594 C 36.949219 13.933594 37.105469 13.96875 37.257812 14.042969 M 40.144531 14.828125 C 40.054688 15.144531 39.921875 15.382812 39.738281 15.550781 C 39.554688 15.714844 39.335938 15.796875 39.078125 15.796875 C 38.820312 15.796875 38.644531 15.714844 38.554688 15.546875 C 38.460938 15.378906 38.457031 15.136719 38.546875 14.816406 C 38.632812 14.496094 38.769531 14.25 38.957031 14.082031 C 39.144531 13.910156 39.367188 13.824219 39.621094 13.824219 C 39.875 13.824219 40.042969 13.914062 40.132812 14.089844 C 40.226562 14.265625 40.226562 14.511719 40.140625 14.828125 M 40.867188 13.277344 C 40.671875 13.128906 40.429688 13.054688 40.128906 13.054688 C 39.871094 13.054688 39.621094 13.109375 39.386719 13.226562 C 39.148438 13.339844 38.957031 13.5 38.8125 13.699219 L 38.816406 13.675781 L 38.988281 13.140625 L 37.976562 13.140625 L 37.71875 14.070312 L 37.710938 14.105469 L 36.644531 17.945312 L 37.683594 17.945312 L 38.21875 16.011719 C 38.273438 16.183594 38.382812 16.316406 38.546875 16.414062 C 38.714844 16.511719 38.917969 16.5625 39.160156 16.5625 C 39.460938 16.5625 39.75 16.492188 40.023438 16.347656 C 40.296875 16.207031 40.535156 16.003906 40.734375 15.742188 C 40.9375 15.476562 41.085938 15.171875 41.179688 14.828125 C 41.277344 14.480469 41.296875 14.175781 41.242188 13.902344 C 41.183594 13.632812 41.0625 13.425781 40.867188 13.277344 M 44.3125 14.816406 C 44.222656 15.132812 44.085938 15.378906 43.902344 15.542969 C 43.71875 15.714844 43.5 15.796875 43.242188 15.796875 C 42.980469 15.796875 42.804688 15.714844 42.710938 15.550781 C 42.617188 15.382812 42.613281 15.144531 42.699219 14.828125 C 42.789062 14.515625 42.925781 14.269531 43.117188 14.089844 C 43.308594 13.914062 43.53125 13.824219 43.789062 13.824219 C 44.046875 13.824219 44.21875 13.910156 44.308594 14.082031 C 44.398438 14.25 44.402344 14.496094 44.3125 14.816406 Z M 44.773438 13.140625 L 44.640625 13.617188 C 44.585938 13.445312 44.476562 13.308594 44.3125 13.207031 C 44.144531 13.105469 43.941406 13.054688 43.699219 13.054688 C 43.402344 13.054688 43.113281 13.128906 42.839844 13.277344 C 42.566406 13.425781 42.324219 13.632812 42.121094 13.902344 C 41.914062 14.175781 41.765625 14.480469 41.667969 14.828125 C 41.574219 15.171875 41.554688 15.476562 41.613281 15.742188 C 41.671875 16.003906 41.792969 16.207031 41.988281 16.347656 C 42.179688 16.492188 42.425781 16.5625 42.726562 16.5625 C 42.96875 16.5625 43.203125 16.511719 43.421875 16.414062 C 43.640625 16.320312 43.824219 16.183594 43.980469 16.011719 L 43.84375 16.507812 L 44.867188 16.507812 L 45.800781 13.140625 Z M 50.09375 13.140625 L 49.464844 13.140625 C 49.445312 13.140625 49.429688 13.140625 49.410156 13.140625 L 49.085938 13.140625 L 48.917969 13.367188 L 48.875 13.417969 L 48.855469 13.445312 L 47.53125 15.230469 L 47.257812 13.140625 L 46.171875 13.140625 L 46.722656 16.320312 L 45.507812 17.945312 L 46.589844 17.945312 L 46.882812 17.542969 C 46.890625 17.53125 46.898438 17.519531 46.910156 17.507812 L 47.253906 17.039062 L 47.261719 17.023438 L 48.796875 14.917969 L 50.09375 13.144531 Z M 50.09375 13.140625 " fill-opacity="1" fill-rule="nonzero"/></g><g clip-path="url(#25c506aa1a)"><path fill="#d8d8d8" d="M 58.253906 1.121094 L 98.105469 1.121094 C 98.488281 1.121094 98.855469 1.273438 99.125 1.542969 C 99.394531 1.8125 99.546875 2.179688 99.546875 2.558594 L 99.546875 26.398438 C 99.546875 26.777344 99.394531 27.144531 99.125 27.414062 C 98.855469 27.679688 98.488281 27.832031 98.105469 27.832031 L 58.253906 27.832031 C 57.871094 27.832031 57.503906 27.679688 57.234375 27.414062 C 56.964844 27.144531 56.8125 26.777344 56.8125 26.398438 L 56.8125 2.558594 C 56.8125 2.179688 56.964844 1.8125 57.234375 1.542969 C 57.503906 1.273438 57.871094 1.121094 58.253906 1.121094 " fill-opacity="1" fill-rule="nonzero"/></g><g clip-path="url(#fb7ae7c0c9)"><path fill="#d8d8d8" d="M 105.148438 1.121094 L 145 1.121094 C 145.382812 1.121094 145.75 1.273438 146.019531 1.542969 C 146.289062 1.8125 146.441406 2.179688 146.441406 2.558594 L 146.441406 26.398438 C 146.441406 26.777344 146.289062 27.144531 146.019531 27.414062 C 145.75 27.679688 145.382812 27.832031 145 27.832031 L 105.148438 27.832031 C 104.765625 27.832031 104.398438 27.679688 104.128906 27.414062 C 103.859375 27.144531 103.707031 26.777344 103.707031 26.398438 L 103.707031 2.558594 C 103.707031 2.179688 103.859375 1.8125 104.128906 1.542969 C 104.398438 1.273438 104.765625 1.121094 105.148438 1.121094 " fill-opacity="1" fill-rule="nonzero"/></g><g clip-path="url(#118f7fa479)"><path fill="#d8d8d8" d="M 152.039062 1.121094 L 191.894531 1.121094 C 192.277344 1.121094 192.640625 1.273438 192.910156 1.542969 C 193.183594 1.8125 193.332031 2.179688 193.332031 2.558594 L 193.332031 26.398438 C 193.332031 26.777344 193.183594 27.144531 192.910156 27.414062 C 192.640625 27.679688 192.277344 27.832031 191.894531 27.832031 L 152.039062 27.832031 C 151.660156 27.832031 151.292969 27.679688 151.023438 27.414062 C 150.753906 27.144531 150.601562 26.777344 150.601562 26.398438 L 150.601562 2.558594 C 150.601562 2.179688 150.753906 1.8125 151.023438 1.542969 C 151.292969 1.273438 151.660156 1.121094 152.039062 1.121094 " fill-opacity="1" fill-rule="nonzero"/></g><g clip-path="url(#b7423c72d3)"><path fill="#d8d8d8" d="M 198.933594 1.121094 L 238.785156 1.121094 C 239.167969 1.121094 239.535156 1.273438 239.804688 1.542969 C 240.074219 1.8125 240.226562 2.179688 240.226562 2.558594 L 240.226562 26.398438 C 240.226562 26.777344 240.074219 27.144531 239.804688 27.414062 C 239.535156 27.679688 239.167969 27.832031 238.785156 27.832031 L 198.933594 27.832031 C 198.550781 27.832031 198.1875 27.679688 197.914062 27.414062 C 197.644531 27.144531 197.492188 26.777344 197.492188 26.398438 L 197.492188 2.558594 C 197.492188 2.179688 197.644531 1.8125 197.914062 1.542969 C 198.1875 1.273438 198.550781 1.121094 198.933594 1.121094 " fill-opacity="1" fill-rule="nonzero"/></g><g clip-path="url(#dc64a2d0ad)"><path fill="#d8d8d8" d="M 245.828125 1.121094 L 285.679688 1.121094 C 286.0625 1.121094 286.429688 1.273438 286.699219 1.542969 C 286.96875 1.8125 287.121094 2.179688 287.121094 2.558594 L 287.121094 26.398438 C 287.121094 26.777344 286.96875 27.144531 286.699219 27.414062 C 286.429688 27.679688 286.0625 27.832031 285.679688 27.832031 L 245.828125 27.832031 C 245.445312 27.832031 245.078125 27.679688 244.808594 27.414062 C 244.539062 27.144531 244.386719 26.777344 244.386719 26.398438 L 244.386719 2.558594 C 244.386719 2.179688 244.539062 1.8125 244.808594 1.542969 C 245.078125 1.273438 245.445312 1.121094 245.828125 1.121094 " fill-opacity="1" fill-rule="nonzero"/></g><path fill="#097939" d="M 90.246094 18.941406 L 94.980469 14.621094 L 92.738281 10.152344 Z M 90.246094 18.941406 " fill-opacity="1" fill-rule="evenodd"/><path fill="#ed752e" d="M 88.652344 18.941406 L 93.386719 14.621094 L 91.144531 10.152344 Z M 88.652344 18.941406 " fill-opacity="1" fill-rule="evenodd"/><path fill="#747474" d="M 66.027344 10.199219 L 64.03125 17.300781 L 71.109375 17.351562 L 73.054688 10.199219 L 74.847656 10.199219 L 72.515625 18.515625 C 72.425781 18.832031 72.085938 19.089844 71.757812 19.089844 L 62.6875 19.089844 C 62.136719 19.089844 61.808594 18.660156 61.960938 18.128906 L 64.183594 10.199219 Z M 87.90625 10.152344 L 89.699219 10.152344 L 87.207031 19.089844 L 85.363281 19.089844 Z M 75.046875 13.875 L 84.019531 13.824219 L 84.617188 11.9375 L 75.496094 11.9375 L 76.042969 10.199219 L 85.761719 10.109375 C 86.367188 10.105469 86.726562 10.574219 86.570312 11.160156 L 85.652344 14.507812 C 85.492188 15.089844 84.871094 15.5625 84.265625 15.5625 L 76.242188 15.5625 L 75.296875 19.238281 L 73.550781 19.238281 Z M 75.046875 13.875 " fill-opacity="1" fill-rule="evenodd"/><g clip-path="url(#a3a90ac577)"><path fill="#54c1f0" d="M 143.472656 11.914062 C 143.140625 10.964844 142.234375 10.285156 141.167969 10.285156 L 141.148438 10.285156 C 140.457031 10.285156 139.832031 10.574219 139.386719 11.035156 C 138.945312 10.574219 138.320312 10.285156 137.628906 10.285156 L 137.605469 10.285156 C 137 10.285156 136.441406 10.507812 136.015625 10.875 L 136.015625 10.6875 C 136 10.503906 135.847656 10.355469 135.65625 10.355469 L 134.023438 10.355469 C 133.824219 10.355469 133.664062 10.515625 133.664062 10.714844 L 133.664062 19.550781 C 133.664062 19.753906 133.824219 19.914062 134.023438 19.914062 L 135.65625 19.914062 C 135.839844 19.914062 135.988281 19.777344 136.011719 19.601562 L 136.011719 13.257812 C 136.011719 13.238281 136.011719 13.214844 136.015625 13.195312 C 136.042969 12.914062 136.25 12.679688 136.578125 12.648438 L 136.878906 12.648438 C 137.015625 12.664062 137.132812 12.710938 137.222656 12.785156 C 137.367188 12.894531 137.445312 13.070312 137.445312 13.257812 L 137.453125 19.570312 C 137.453125 19.769531 137.613281 19.933594 137.8125 19.933594 L 139.445312 19.933594 C 139.636719 19.933594 139.792969 19.777344 139.804688 19.589844 L 139.804688 13.25 C 139.800781 13.042969 139.898438 12.855469 140.070312 12.742188 C 140.152344 12.6875 140.253906 12.652344 140.367188 12.640625 L 140.671875 12.640625 C 141.023438 12.671875 141.238281 12.941406 141.234375 13.25 L 141.242188 19.554688 C 141.242188 19.753906 141.402344 19.914062 141.601562 19.914062 L 143.234375 19.914062 C 143.433594 19.914062 143.597656 19.753906 143.597656 19.554688 L 143.597656 12.773438 C 143.597656 12.3125 143.542969 12.117188 143.472656 11.914062 Z M 132.421875 10.378906 L 131.488281 10.378906 L 131.488281 8.867188 C 131.488281 8.683594 131.339844 8.539062 131.15625 8.539062 C 131.136719 8.539062 131.117188 8.542969 131.09375 8.546875 C 130.058594 8.828125 130.265625 10.257812 128.378906 10.378906 L 128.195312 10.378906 C 128.167969 10.378906 128.140625 10.382812 128.113281 10.386719 L 128.113281 10.390625 C 127.953125 10.425781 127.832031 10.566406 127.832031 10.738281 L 127.832031 12.367188 C 127.832031 12.5625 127.996094 12.726562 128.195312 12.726562 L 129.179688 12.726562 L 129.175781 19.625 C 129.175781 19.820312 129.335938 19.980469 129.535156 19.980469 L 131.148438 19.980469 C 131.34375 19.980469 131.503906 19.820312 131.503906 19.625 L 131.507812 12.726562 L 132.421875 12.726562 C 132.621094 12.726562 132.78125 12.5625 132.78125 12.367188 L 132.78125 10.738281 C 132.78125 10.539062 132.621094 10.378906 132.421875 10.378906 Z M 132.421875 10.378906 " fill-opacity="1" fill-rule="nonzero"/></g><g clip-path="url(#a5d6692433)"><path fill="#233266" d="M 126.546875 10.378906 L 124.914062 10.378906 C 124.714844 10.378906 124.554688 10.539062 124.554688 10.738281 L 124.554688 14.101562 C 124.550781 14.3125 124.382812 14.476562 124.171875 14.476562 L 123.488281 14.476562 C 123.277344 14.476562 123.105469 14.308594 123.105469 14.097656 L 123.097656 10.738281 C 123.097656 10.539062 122.9375 10.378906 122.738281 10.378906 L 121.105469 10.378906 C 120.90625 10.378906 120.746094 10.539062 120.746094 10.738281 L 120.746094 14.425781 C 120.746094 15.828125 121.746094 16.824219 123.152344 16.824219 C 123.152344 16.824219 124.207031 16.824219 124.238281 16.832031 C 124.429688 16.851562 124.578125 17.011719 124.578125 17.207031 C 124.578125 17.402344 124.433594 17.558594 124.246094 17.585938 C 124.234375 17.585938 124.226562 17.589844 124.21875 17.589844 L 121.832031 17.597656 C 121.628906 17.597656 121.46875 17.757812 121.46875 17.957031 L 121.46875 19.585938 C 121.46875 19.78125 121.628906 19.945312 121.832031 19.945312 L 124.5 19.945312 C 125.90625 19.945312 126.90625 18.945312 126.90625 17.542969 L 126.90625 10.738281 C 126.90625 10.539062 126.746094 10.378906 126.546875 10.378906 Z M 110.886719 10.378906 L 107.320312 10.378906 C 107.125 10.378906 106.964844 10.535156 106.964844 10.730469 L 106.964844 12.324219 C 106.964844 12.328125 106.964844 12.332031 106.964844 12.335938 C 106.964844 12.34375 106.964844 12.351562 106.964844 12.355469 L 106.964844 19.574219 C 106.964844 19.769531 107.113281 19.929688 107.296875 19.933594 L 108.960938 19.933594 C 109.160156 19.933594 109.320312 19.773438 109.320312 19.574219 L 109.328125 17.101562 L 110.886719 17.101562 C 112.195312 17.101562 113.105469 16.195312 113.105469 14.890625 L 113.105469 12.59375 C 113.105469 11.285156 112.195312 10.378906 110.886719 10.378906 Z M 110.746094 14.363281 C 110.746094 14.574219 110.574219 14.746094 110.363281 14.746094 L 109.328125 14.746094 L 109.328125 12.734375 L 110.363281 12.734375 C 110.574219 12.734375 110.746094 12.90625 110.746094 13.117188 Z M 117.257812 10.386719 L 114.992188 10.386719 C 114.792969 10.386719 114.632812 10.539062 114.632812 10.726562 L 114.632812 11.359375 C 114.632812 11.363281 114.632812 11.367188 114.632812 11.371094 C 114.632812 11.375 114.632812 11.378906 114.632812 11.382812 L 114.632812 12.25 C 114.632812 12.449219 114.804688 12.609375 115.015625 12.609375 L 117.171875 12.609375 C 117.34375 12.636719 117.476562 12.757812 117.496094 12.953125 L 117.496094 13.164062 C 117.476562 13.347656 117.34375 13.480469 117.179688 13.496094 L 116.113281 13.496094 C 114.691406 13.496094 113.679688 14.4375 113.679688 15.757812 L 113.679688 17.652344 C 113.679688 18.964844 114.550781 19.898438 115.960938 19.898438 L 118.921875 19.898438 C 119.453125 19.898438 119.882812 19.496094 119.882812 19.003906 L 119.882812 12.832031 C 119.882812 11.332031 119.109375 10.386719 117.257812 10.386719 Z M 117.519531 17.433594 C 117.519531 17.457031 117.515625 17.476562 117.511719 17.496094 C 117.507812 17.511719 117.503906 17.53125 117.496094 17.546875 C 117.445312 17.691406 117.304688 17.792969 117.132812 17.792969 L 116.453125 17.792969 C 116.242188 17.792969 116.070312 17.632812 116.070312 17.433594 L 116.070312 17.128906 C 116.070312 17.125 116.070312 17.121094 116.070312 17.117188 L 116.070312 16.042969 C 116.070312 15.84375 116.242188 15.6875 116.453125 15.6875 L 117.132812 15.6875 C 117.347656 15.6875 117.519531 15.84375 117.519531 16.042969 Z M 117.519531 17.433594 " fill-opacity="1" fill-rule="nonzero"/></g><g clip-path="url(#717db56cc2)"><path fill="#018c45" d="M 188.710938 11.054688 L 190.816406 15.273438 L 186.386719 19.5 Z M 188.710938 11.054688 " fill-opacity="1" fill-rule="nonzero"/></g><path fill="#f47920" d="M 187.246094 11.054688 L 189.351562 15.273438 L 184.921875 19.5 Z M 187.246094 11.054688 " fill-opacity="1" fill-rule="nonzero"/><g clip-path="url(#9f4ef61993)"><path fill="#29387e" d="M 156.851562 13.609375 L 157.875 13.609375 C 158.234375 13.609375 158.496094 13.558594 158.660156 13.453125 C 158.820312 13.347656 158.945312 13.164062 159.015625 12.898438 C 159.089844 12.628906 159.070312 12.449219 158.964844 12.339844 C 158.859375 12.234375 158.601562 12.183594 158.203125 12.183594 L 157.238281 12.183594 Z M 153.425781 17.960938 L 155.53125 10.324219 L 158.894531 10.324219 C 159.949219 10.324219 160.648438 10.492188 161.007812 10.839844 C 161.363281 11.183594 161.433594 11.742188 161.222656 12.53125 C 161.089844 12.992188 160.898438 13.382812 160.621094 13.691406 C 160.355469 14 160 14.246094 159.570312 14.421875 C 159.9375 14.507812 160.175781 14.683594 160.28125 14.953125 C 160.386719 15.21875 160.375 15.605469 160.242188 16.117188 L 159.988281 17.183594 L 159.988281 17.214844 C 159.914062 17.515625 159.9375 17.675781 160.054688 17.6875 L 159.980469 17.96875 L 157.707031 17.96875 C 157.710938 17.785156 157.730469 17.628906 157.742188 17.492188 C 157.761719 17.355469 157.78125 17.246094 157.800781 17.171875 L 158.011719 16.410156 C 158.117188 16.015625 158.125 15.738281 158.023438 15.574219 C 157.925781 15.414062 157.699219 15.332031 157.34375 15.332031 L 156.390625 15.332031 L 155.648438 17.960938 Z M 167.453125 12.328125 L 165.902344 17.960938 L 164.019531 17.960938 L 164.25 17.140625 C 163.917969 17.464844 163.578125 17.71875 163.234375 17.875 C 162.898438 18.039062 162.535156 18.121094 162.160156 18.121094 C 161.851562 18.121094 161.582031 18.0625 161.371094 17.949219 C 161.152344 17.835938 160.992188 17.667969 160.878906 17.441406 C 160.777344 17.246094 160.742188 17 160.753906 16.707031 C 160.773438 16.417969 160.871094 15.933594 161.058594 15.253906 L 161.863281 12.328125 L 163.925781 12.328125 L 163.121094 15.238281 C 163.003906 15.664062 162.976562 15.964844 163.035156 16.121094 C 163.097656 16.285156 163.253906 16.375 163.507812 16.375 C 163.769531 16.375 163.988281 16.28125 164.167969 16.085938 C 164.347656 15.890625 164.492188 15.605469 164.597656 15.222656 L 165.398438 12.320312 L 167.453125 12.320312 Z M 170.113281 13.761719 L 170.84375 13.761719 C 171.3125 13.761719 171.640625 13.703125 171.835938 13.589844 C 172.019531 13.476562 172.152344 13.269531 172.234375 12.980469 C 172.3125 12.6875 172.296875 12.484375 172.171875 12.371094 C 172.050781 12.257812 171.753906 12.203125 171.265625 12.203125 L 170.542969 12.203125 Z M 166.707031 17.960938 L 168.804688 10.324219 L 171.699219 10.324219 C 172.332031 10.324219 172.832031 10.363281 173.179688 10.445312 C 173.53125 10.527344 173.808594 10.652344 174.007812 10.832031 C 174.265625 11.070312 174.421875 11.367188 174.488281 11.726562 C 174.550781 12.078125 174.515625 12.492188 174.382812 12.980469 C 174.148438 13.835938 173.734375 14.488281 173.148438 14.949219 C 172.558594 15.398438 171.828125 15.625 170.960938 15.625 L 169.609375 15.625 L 168.960938 17.960938 Z M 177.304688 15.445312 C 177.089844 15.53125 176.800781 15.621094 176.453125 15.707031 C 175.898438 15.859375 175.585938 16.058594 175.519531 16.304688 C 175.46875 16.460938 175.492188 16.585938 175.566406 16.679688 C 175.640625 16.769531 175.773438 16.8125 175.960938 16.8125 C 176.304688 16.8125 176.578125 16.726562 176.78125 16.554688 C 176.988281 16.378906 177.144531 16.109375 177.25 15.734375 C 177.269531 15.652344 177.289062 15.59375 177.292969 15.550781 Z M 176.808594 17.960938 L 176.828125 17.429688 C 176.496094 17.679688 176.160156 17.867188 175.816406 17.988281 C 175.480469 18.105469 175.117188 18.171875 174.738281 18.171875 C 174.152344 18.171875 173.746094 18.011719 173.511719 17.699219 C 173.28125 17.390625 173.242188 16.945312 173.398438 16.375 C 173.546875 15.816406 173.824219 15.398438 174.210938 15.136719 C 174.59375 14.871094 175.242188 14.675781 176.152344 14.558594 C 176.265625 14.539062 176.421875 14.527344 176.613281 14.5 C 177.289062 14.425781 177.660156 14.246094 177.742188 13.949219 C 177.785156 13.785156 177.761719 13.667969 177.660156 13.597656 C 177.566406 13.523438 177.386719 13.484375 177.132812 13.484375 C 176.921875 13.484375 176.746094 13.527344 176.601562 13.621094 C 176.457031 13.714844 176.351562 13.855469 176.285156 14.050781 L 174.277344 14.050781 C 174.457031 13.414062 174.832031 12.9375 175.386719 12.617188 C 175.941406 12.289062 176.671875 12.132812 177.582031 12.132812 C 178.003906 12.132812 178.390625 12.171875 178.726562 12.257812 C 179.0625 12.339844 179.3125 12.460938 179.46875 12.605469 C 179.667969 12.785156 179.78125 12.988281 179.816406 13.214844 C 179.855469 13.441406 179.8125 13.765625 179.699219 14.1875 L 178.832031 17.328125 C 178.808594 17.429688 178.800781 17.523438 178.816406 17.605469 C 178.832031 17.6875 178.863281 17.753906 178.925781 17.800781 L 178.882812 17.957031 L 176.808594 17.957031 Z M 178.894531 20.1875 L 179.351562 18.515625 L 179.941406 18.515625 C 180.140625 18.515625 180.292969 18.476562 180.402344 18.402344 C 180.515625 18.328125 180.589844 18.203125 180.632812 18.03125 C 180.660156 17.957031 180.671875 17.882812 180.679688 17.792969 C 180.683594 17.699219 180.683594 17.597656 180.679688 17.484375 L 180.359375 12.320312 L 182.449219 12.320312 L 182.417969 15.738281 L 184.238281 12.320312 L 186.175781 12.320312 L 182.953125 17.929688 C 182.585938 18.558594 182.324219 18.988281 182.15625 19.226562 C 181.988281 19.457031 181.832031 19.640625 181.675781 19.757812 C 181.476562 19.929688 181.257812 20.046875 181.015625 20.117188 C 180.773438 20.1875 180.410156 20.222656 179.917969 20.222656 C 179.773438 20.222656 179.613281 20.222656 179.4375 20.210938 C 179.269531 20.210938 179.082031 20.199219 178.894531 20.1875 " fill-opacity="1" fill-rule="nonzero"/></g><path fill="#2566af" d="M 216.265625 21.164062 L 213.171875 21.164062 L 215.105469 9.289062 L 218.195312 9.289062 Z M 210.570312 9.289062 L 207.621094 17.457031 L 207.273438 15.699219 L 206.234375 10.359375 C 206.234375 10.359375 206.109375 9.289062 204.765625 9.289062 L 199.894531 9.289062 L 199.835938 9.488281 C 199.835938 9.488281 201.328125 9.800781 203.070312 10.847656 L 205.757812 21.164062 L 208.980469 21.164062 L 213.898438 9.289062 Z M 234.890625 21.164062 L 237.730469 21.164062 L 235.253906 9.289062 L 232.769531 9.289062 C 231.621094 9.289062 231.339844 10.171875 231.339844 10.171875 L 226.730469 21.164062 L 229.953125 21.164062 L 230.597656 19.402344 L 234.527344 19.402344 Z M 231.488281 16.964844 L 233.113281 12.519531 L 234.027344 16.964844 Z M 226.972656 12.144531 L 227.414062 9.59375 C 227.414062 9.59375 226.050781 9.078125 224.632812 9.078125 C 223.097656 9.078125 219.453125 9.746094 219.453125 13.007812 C 219.453125 16.078125 223.730469 16.113281 223.730469 17.726562 C 223.730469 19.335938 219.894531 19.050781 218.628906 18.03125 L 218.167969 20.699219 C 218.167969 20.699219 219.550781 21.371094 221.660156 21.371094 C 223.769531 21.371094 226.953125 20.277344 226.953125 17.304688 C 226.953125 14.214844 222.636719 13.929688 222.636719 12.585938 C 222.636719 11.242188 225.648438 11.414062 226.972656 12.144531 Z M 226.972656 12.144531 " fill-opacity="1" fill-rule="nonzero"/><path fill="#e6a540" d="M 207.273438 15.699219 L 206.234375 10.359375 C 206.234375 10.359375 206.109375 9.289062 204.765625 9.289062 L 199.894531 9.289062 L 199.835938 9.488281 C 199.835938 9.488281 202.179688 9.976562 204.425781 11.792969 C 206.574219 13.53125 207.273438 15.699219 207.273438 15.699219 Z M 207.273438 15.699219 " fill-opacity="1" fill-rule="nonzero"/><g clip-path="url(#b55e568143)"><path fill="#231f20" d="M 279.339844 25.972656 L 279.339844 26.03125 L 279.390625 26.03125 C 279.402344 26.03125 279.410156 26.027344 279.417969 26.023438 C 279.425781 26.019531 279.429688 26.011719 279.429688 26 C 279.429688 25.992188 279.425781 25.984375 279.417969 25.980469 C 279.410156 25.976562 279.402344 25.972656 279.390625 25.972656 Z M 279.390625 25.933594 C 279.414062 25.933594 279.4375 25.9375 279.453125 25.953125 C 279.46875 25.964844 279.476562 25.980469 279.476562 26 C 279.476562 26.019531 279.472656 26.035156 279.460938 26.046875 C 279.445312 26.058594 279.429688 26.066406 279.410156 26.066406 L 279.480469 26.148438 L 279.425781 26.148438 L 279.359375 26.066406 L 279.339844 26.066406 L 279.339844 26.148438 L 279.292969 26.148438 L 279.292969 25.933594 Z M 279.378906 26.222656 C 279.402344 26.222656 279.425781 26.21875 279.445312 26.207031 C 279.46875 26.199219 279.488281 26.1875 279.503906 26.167969 C 279.519531 26.152344 279.53125 26.132812 279.542969 26.113281 C 279.5625 26.066406 279.5625 26.019531 279.542969 25.972656 C 279.53125 25.949219 279.519531 25.933594 279.503906 25.914062 C 279.488281 25.898438 279.46875 25.886719 279.445312 25.875 C 279.425781 25.867188 279.402344 25.863281 279.378906 25.863281 C 279.351562 25.863281 279.328125 25.867188 279.308594 25.875 C 279.285156 25.886719 279.265625 25.898438 279.25 25.914062 C 279.191406 25.972656 279.179688 26.039062 279.210938 26.113281 C 279.21875 26.136719 279.234375 26.15625 279.25 26.171875 C 279.265625 26.1875 279.285156 26.199219 279.308594 26.210938 C 279.328125 26.21875 279.351562 26.222656 279.378906 26.222656 M 279.378906 25.8125 C 279.441406 25.8125 279.496094 25.835938 279.542969 25.878906 C 279.566406 25.902344 279.582031 25.925781 279.59375 25.953125 C 279.617188 26.015625 279.617188 26.074219 279.59375 26.132812 C 279.582031 26.160156 279.566406 26.1875 279.542969 26.207031 C 279.519531 26.230469 279.496094 26.246094 279.46875 26.257812 C 279.441406 26.269531 279.410156 26.277344 279.378906 26.277344 C 279.34375 26.277344 279.3125 26.269531 279.285156 26.257812 C 279.257812 26.246094 279.230469 26.230469 279.210938 26.207031 C 279.1875 26.183594 279.171875 26.160156 279.160156 26.132812 C 279.136719 26.070312 279.136719 26.011719 279.160156 25.953125 C 279.171875 25.921875 279.1875 25.898438 279.210938 25.878906 C 279.230469 25.855469 279.257812 25.839844 279.285156 25.828125 C 279.316406 25.816406 279.347656 25.808594 279.378906 25.808594 M 257.761719 24.980469 C 257.761719 24.570312 258.027344 24.234375 258.460938 24.234375 C 258.878906 24.234375 259.160156 24.554688 259.160156 24.980469 C 259.160156 25.40625 258.878906 25.726562 258.460938 25.726562 C 258.027344 25.726562 257.761719 25.390625 257.761719 24.980469 M 259.636719 24.980469 L 259.636719 23.8125 L 259.132812 23.8125 L 259.132812 24.097656 C 258.972656 23.886719 258.730469 23.753906 258.398438 23.753906 C 257.75 23.753906 257.242188 24.269531 257.242188 24.980469 C 257.242188 25.695312 257.75 26.207031 258.398438 26.207031 C 258.730469 26.207031 258.972656 26.074219 259.132812 25.863281 L 259.132812 26.148438 L 259.636719 26.148438 Z M 276.660156 24.980469 C 276.660156 24.570312 276.929688 24.234375 277.363281 24.234375 C 277.78125 24.234375 278.0625 24.554688 278.0625 24.980469 C 278.0625 25.40625 277.78125 25.726562 277.363281 25.726562 C 276.929688 25.726562 276.660156 25.390625 276.660156 24.980469 M 278.539062 24.980469 L 278.539062 22.875 L 278.035156 22.875 L 278.035156 24.097656 C 277.875 23.886719 277.632812 23.753906 277.300781 23.753906 C 276.652344 23.753906 276.140625 24.269531 276.140625 24.980469 C 276.140625 25.695312 276.652344 26.207031 277.300781 26.207031 C 277.632812 26.207031 277.875 26.074219 278.035156 25.863281 L 278.035156 26.148438 L 278.539062 26.148438 Z M 265.890625 24.210938 C 266.214844 24.210938 266.421875 24.414062 266.476562 24.773438 L 265.273438 24.773438 C 265.328125 24.4375 265.53125 24.210938 265.890625 24.210938 M 265.898438 23.753906 C 265.222656 23.753906 264.746094 24.25 264.746094 24.980469 C 264.746094 25.722656 265.238281 26.207031 265.933594 26.207031 C 266.28125 26.207031 266.601562 26.117188 266.882812 25.878906 L 266.636719 25.503906 C 266.441406 25.660156 266.195312 25.746094 265.960938 25.746094 C 265.636719 25.746094 265.34375 25.59375 265.269531 25.175781 L 266.988281 25.175781 C 266.996094 25.113281 267 25.046875 267 24.980469 C 266.996094 24.25 266.546875 23.753906 265.898438 23.753906 M 271.984375 24.980469 C 271.984375 24.570312 272.25 24.230469 272.6875 24.230469 C 273.101562 24.230469 273.382812 24.554688 273.382812 24.980469 C 273.382812 25.40625 273.101562 25.726562 272.6875 25.726562 C 272.25 25.726562 271.984375 25.390625 271.984375 24.980469 M 273.859375 24.980469 L 273.859375 23.8125 L 273.355469 23.8125 L 273.355469 24.097656 C 273.195312 23.886719 272.953125 23.753906 272.625 23.753906 C 271.972656 23.753906 271.464844 24.269531 271.464844 24.980469 C 271.464844 25.695312 271.972656 26.207031 272.625 26.207031 C 272.953125 26.207031 273.195312 26.074219 273.355469 25.863281 L 273.355469 26.148438 L 273.859375 26.148438 Z M 269.136719 24.980469 C 269.136719 25.6875 269.625 26.207031 270.375 26.207031 C 270.722656 26.207031 270.957031 26.128906 271.207031 25.925781 L 270.964844 25.515625 C 270.777344 25.652344 270.578125 25.726562 270.359375 25.726562 C 269.957031 25.722656 269.660156 25.429688 269.660156 24.980469 C 269.660156 24.53125 269.957031 24.238281 270.359375 24.230469 C 270.578125 24.230469 270.773438 24.304688 270.964844 24.441406 L 271.207031 24.03125 C 270.953125 23.832031 270.722656 23.753906 270.375 23.753906 C 269.625 23.753906 269.136719 24.269531 269.136719 24.980469 M 275.632812 23.753906 C 275.34375 23.753906 275.152344 23.890625 275.023438 24.097656 L 275.023438 23.8125 L 274.523438 23.8125 L 274.523438 26.148438 L 275.027344 26.148438 L 275.027344 24.839844 C 275.027344 24.453125 275.191406 24.238281 275.523438 24.238281 C 275.628906 24.234375 275.734375 24.253906 275.835938 24.296875 L 275.992188 23.816406 C 275.878906 23.773438 275.734375 23.753906 275.632812 23.753906 M 262.128906 24 C 261.882812 23.835938 261.550781 23.753906 261.183594 23.753906 C 260.59375 23.753906 260.21875 24.039062 260.21875 24.5 C 260.21875 24.882812 260.5 25.117188 261.015625 25.191406 L 261.253906 25.222656 C 261.53125 25.261719 261.660156 25.335938 261.660156 25.46875 C 261.660156 25.648438 261.476562 25.753906 261.132812 25.753906 C 260.785156 25.753906 260.53125 25.640625 260.363281 25.507812 L 260.125 25.902344 C 260.402344 26.109375 260.75 26.207031 261.128906 26.207031 C 261.796875 26.207031 262.1875 25.890625 262.1875 25.445312 C 262.1875 25.035156 261.878906 24.820312 261.375 24.746094 L 261.140625 24.710938 C 260.921875 24.683594 260.746094 24.640625 260.746094 24.484375 C 260.746094 24.3125 260.910156 24.210938 261.1875 24.210938 C 261.484375 24.210938 261.769531 24.320312 261.910156 24.410156 Z M 268.628906 23.753906 C 268.335938 23.753906 268.148438 23.890625 268.019531 24.097656 L 268.019531 23.8125 L 267.519531 23.8125 L 267.519531 26.148438 L 268.023438 26.148438 L 268.023438 24.839844 C 268.023438 24.453125 268.1875 24.238281 268.515625 24.238281 C 268.625 24.234375 268.730469 24.253906 268.832031 24.296875 L 268.988281 23.816406 C 268.875 23.773438 268.730469 23.753906 268.628906 23.753906 M 264.328125 23.8125 L 263.503906 23.8125 L 263.503906 23.105469 L 262.996094 23.105469 L 262.996094 23.8125 L 262.527344 23.8125 L 262.527344 24.277344 L 262.996094 24.277344 L 262.996094 25.339844 C 262.996094 25.882812 263.203125 26.207031 263.800781 26.207031 C 264.019531 26.207031 264.269531 26.136719 264.429688 26.023438 L 264.285156 25.589844 C 264.132812 25.679688 263.96875 25.722656 263.839844 25.722656 C 263.585938 25.722656 263.503906 25.566406 263.503906 25.332031 L 263.503906 24.277344 L 264.328125 24.277344 Z M 256.796875 26.148438 L 256.796875 24.683594 C 256.796875 24.132812 256.445312 23.761719 255.882812 23.753906 C 255.589844 23.75 255.28125 23.84375 255.070312 24.171875 C 254.910156 23.910156 254.65625 23.753906 254.304688 23.753906 C 254.054688 23.753906 253.8125 23.828125 253.625 24.101562 L 253.625 23.8125 L 253.121094 23.8125 L 253.121094 26.148438 L 253.628906 26.148438 L 253.628906 24.851562 C 253.628906 24.449219 253.851562 24.230469 254.195312 24.230469 C 254.53125 24.230469 254.699219 24.453125 254.699219 24.847656 L 254.699219 26.148438 L 255.210938 26.148438 L 255.210938 24.851562 C 255.210938 24.449219 255.441406 24.230469 255.777344 24.230469 C 256.121094 24.230469 256.285156 24.453125 256.285156 24.847656 L 256.285156 26.148438 Z M 256.796875 26.148438 " fill-opacity="1" fill-rule="nonzero"/></g><g clip-path="url(#6893f4b9fb)"><path fill="#f79410" d="M 279.625 18.382812 L 279.625 18.042969 L 279.539062 18.042969 L 279.433594 18.277344 L 279.332031 18.042969 L 279.246094 18.042969 L 279.246094 18.382812 L 279.308594 18.382812 L 279.308594 18.125 L 279.402344 18.347656 L 279.46875 18.347656 L 279.5625 18.125 L 279.5625 18.382812 Z M 279.066406 18.382812 L 279.066406 18.101562 L 279.179688 18.101562 L 279.179688 18.042969 L 278.890625 18.042969 L 278.890625 18.101562 L 279.003906 18.101562 L 279.003906 18.382812 Z M 279.066406 18.382812 " fill-opacity="1" fill-rule="nonzero"/></g><path fill="#ff5f00" d="M 269.597656 19.847656 L 261.960938 19.847656 L 261.960938 6.023438 L 269.597656 6.023438 Z M 269.597656 19.847656 " fill-opacity="1" fill-rule="nonzero"/><g clip-path="url(#abab37031c)"><path fill="#eb001b" d="M 262.445312 12.933594 C 262.445312 10.128906 263.75 7.632812 265.777344 6.023438 C 264.195312 4.765625 262.398438 4.140625 260.386719 4.144531 C 255.566406 4.144531 251.660156 8.078125 251.660156 12.933594 C 251.660156 17.789062 255.566406 21.726562 260.386719 21.726562 C 262.398438 21.730469 264.195312 21.101562 265.777344 19.847656 C 263.75 18.238281 262.445312 15.738281 262.445312 12.933594 " fill-opacity="1" fill-rule="nonzero"/></g><g clip-path="url(#178aad0120)"><path fill="#f79e1b" d="M 279.898438 12.933594 C 279.898438 17.789062 275.992188 21.726562 271.171875 21.726562 C 269.15625 21.730469 267.359375 21.101562 265.777344 19.847656 C 267.808594 18.238281 269.113281 15.738281 269.113281 12.933594 C 269.113281 10.128906 267.808594 7.632812 265.777344 6.023438 C 267.359375 4.765625 269.15625 4.140625 271.171875 4.144531 C 275.992188 4.144531 279.898438 8.078125 279.898438 12.933594 " fill-opacity="1" fill-rule="nonzero"/></g><g clip-path="url(#170135a308)"><path fill="#d8d8d8" d="M 292.722656 1.121094 L 332.574219 1.121094 C 332.957031 1.121094 333.320312 1.273438 333.59375 1.542969 C 333.863281 1.8125 334.015625 2.179688 334.015625 2.558594 L 334.015625 26.398438 C 334.015625 26.777344 333.863281 27.144531 333.59375 27.414062 C 333.320312 27.679688 332.957031 27.832031 332.574219 27.832031 L 292.722656 27.832031 C 292.339844 27.832031 291.972656 27.679688 291.703125 27.414062 C 291.433594 27.144531 291.28125 26.777344 291.28125 26.398438 L 291.28125 2.558594 C 291.28125 2.179688 291.433594 1.8125 291.703125 1.542969 C 291.972656 1.273438 292.339844 1.121094 292.722656 1.121094 " fill-opacity="1" fill-rule="nonzero"/></g><g clip-path="url(#ad1856486c)"><path fill="#000000" d="M 300.511719 7.796875 C 296.296875 7.527344 292.804688 11.019531 293.074219 15.234375 C 293.300781 18.71875 296.113281 21.535156 299.597656 21.757812 C 303.816406 22.027344 307.304688 18.535156 307.035156 14.320312 C 306.8125 10.835938 303.996094 8.019531 300.511719 7.796875 Z M 303.222656 18.246094 C 303.496094 17.300781 303.660156 16.214844 303.683594 15.046875 L 306.503906 15.046875 C 306.441406 16.546875 305.867188 17.914062 304.949219 18.980469 C 304.527344 18.683594 303.941406 18.4375 303.222656 18.246094 Z M 295.160156 18.980469 C 294.242188 17.914062 293.667969 16.546875 293.605469 15.046875 L 296.425781 15.046875 C 296.449219 16.214844 296.613281 17.300781 296.890625 18.246094 C 296.171875 18.4375 295.582031 18.683594 295.160156 18.980469 Z M 296.886719 11.3125 C 296.613281 12.253906 296.449219 13.339844 296.425781 14.507812 L 293.605469 14.507812 C 293.667969 13.015625 294.238281 11.652344 295.148438 10.589844 C 295.578125 10.878906 296.167969 11.125 296.886719 11.3125 Z M 299.785156 14.507812 L 296.964844 14.507812 C 296.988281 13.394531 297.152344 12.34375 297.425781 11.433594 C 298.152344 11.582031 298.957031 11.664062 299.785156 11.679688 Z M 299.785156 15.046875 L 299.785156 17.875 C 298.957031 17.890625 298.148438 17.972656 297.425781 18.121094 C 297.15625 17.210938 296.988281 16.160156 296.964844 15.046875 Z M 300.324219 15.046875 L 303.144531 15.046875 C 303.121094 16.160156 302.957031 17.210938 302.6875 18.121094 C 301.960938 17.972656 301.15625 17.890625 300.324219 17.875 Z M 300.324219 14.507812 L 300.324219 11.679688 C 301.152344 11.664062 301.960938 11.582031 302.6875 11.433594 C 302.957031 12.34375 303.121094 13.394531 303.144531 14.507812 Z M 300.324219 11.140625 L 300.324219 8.347656 C 301.207031 8.515625 302 9.496094 302.515625 10.921875 C 301.839844 11.050781 301.09375 11.128906 300.324219 11.140625 Z M 299.785156 8.347656 L 299.785156 11.140625 C 299.019531 11.128906 298.269531 11.050781 297.59375 10.921875 C 298.113281 9.496094 298.902344 8.515625 299.785156 8.347656 Z M 299.785156 18.414062 L 299.785156 21.207031 C 298.902344 21.039062 298.113281 20.058594 297.59375 18.636719 C 298.269531 18.503906 299.015625 18.425781 299.785156 18.414062 Z M 300.324219 21.207031 L 300.324219 18.414062 C 301.09375 18.425781 301.84375 18.503906 302.515625 18.636719 C 301.996094 20.058594 301.207031 21.039062 300.324219 21.207031 Z M 303.683594 14.507812 C 303.660156 13.339844 303.5 12.253906 303.222656 11.3125 C 303.941406 11.125 304.535156 10.878906 304.964844 10.589844 C 305.875 11.652344 306.445312 13.015625 306.503906 14.507812 Z M 304.589844 10.1875 C 304.214844 10.425781 303.6875 10.636719 303.058594 10.796875 C 302.722656 9.84375 302.265625 9.066406 301.722656 8.539062 C 302.820312 8.835938 303.804688 9.410156 304.589844 10.1875 Z M 297.050781 10.796875 C 296.421875 10.636719 295.898438 10.425781 295.519531 10.1875 C 296.304688 9.410156 297.289062 8.835938 298.386719 8.539062 C 297.847656 9.066406 297.390625 9.84375 297.050781 10.796875 Z M 295.535156 19.378906 C 295.902344 19.136719 296.425781 18.925781 297.054688 18.761719 C 297.390625 19.714844 297.847656 20.488281 298.386719 21.011719 C 297.296875 20.722656 296.316406 20.148438 295.535156 19.378906 Z M 303.058594 18.761719 C 303.6875 18.925781 304.210938 19.136719 304.578125 19.378906 C 303.792969 20.148438 302.816406 20.722656 301.722656 21.011719 C 302.261719 20.488281 302.71875 19.714844 303.058594 18.761719 Z M 303.058594 18.761719 " fill-opacity="1" fill-rule="nonzero"/></g><g fill="#000000" fill-opacity="1"><g transform="translate(308.371536, 12.348856)"><g><path d="M 0.078125 0 L 0.078125 -0.40625 L 0.765625 -0.40625 L 0.765625 -3.828125 L 0.078125 -3.828125 L 0.078125 -4.234375 L 2.078125 -4.234375 L 2.078125 -3.828125 L 1.4375 -3.828125 L 1.4375 -0.40625 L 2.078125 -0.40625 L 2.078125 0 Z M 0.078125 0 "/></g></g><g transform="translate(310.534058, 12.348856)"><g><path d="M 0.140625 -0.3125 L 0.6875 -0.3125 L 0.6875 -2.703125 L 0.140625 -2.703125 L 0.140625 -3.015625 L 1.203125 -3.0625 L 1.28125 -2.453125 C 1.332031 -2.585938 1.410156 -2.703125 1.515625 -2.796875 C 1.628906 -2.898438 1.75 -2.976562 1.875 -3.03125 C 2.007812 -3.082031 2.144531 -3.109375 2.28125 -3.109375 C 2.34375 -3.109375 2.394531 -3.101562 2.4375 -3.09375 C 2.488281 -3.082031 2.546875 -3.070312 2.609375 -3.0625 C 2.679688 -3.039062 2.742188 -3.015625 2.796875 -2.984375 C 2.847656 -2.953125 2.898438 -2.90625 2.953125 -2.84375 C 3.003906 -2.789062 3.046875 -2.726562 3.078125 -2.65625 C 3.117188 -2.582031 3.148438 -2.488281 3.171875 -2.375 C 3.203125 -2.269531 3.21875 -2.144531 3.21875 -2 L 3.21875 -0.3125 L 3.796875 -0.3125 L 3.796875 0 L 2.09375 0 L 2.09375 -0.3125 L 2.609375 -0.3125 L 2.609375 -2 C 2.609375 -2.238281 2.5625 -2.414062 2.46875 -2.53125 C 2.375 -2.65625 2.238281 -2.71875 2.0625 -2.71875 C 1.957031 -2.71875 1.859375 -2.695312 1.765625 -2.65625 C 1.679688 -2.613281 1.609375 -2.5625 1.546875 -2.5 C 1.492188 -2.425781 1.445312 -2.34375 1.40625 -2.25 C 1.363281 -2.15625 1.335938 -2.0625 1.328125 -1.96875 C 1.304688 -1.875 1.296875 -1.769531 1.296875 -1.65625 L 1.296875 -0.3125 L 1.796875 -0.3125 L 1.796875 0 L 0.140625 0 Z M 0.140625 -0.3125 "/></g></g><g transform="translate(314.35573, 12.348856)"><g><path d="M 1.4375 0.078125 C 1.1875 0.078125 0.976562 0.00390625 0.8125 -0.140625 C 0.71875 -0.210938 0.644531 -0.304688 0.59375 -0.421875 C 0.539062 -0.546875 0.515625 -0.679688 0.515625 -0.828125 L 0.515625 -2.703125 L -0.0625 -2.703125 L -0.0625 -2.84375 C 0.0820312 -2.882812 0.210938 -2.957031 0.328125 -3.0625 C 0.441406 -3.164062 0.539062 -3.289062 0.625 -3.4375 C 0.6875 -3.5625 0.75 -3.6875 0.8125 -3.8125 C 0.875 -3.96875 0.921875 -4.066406 0.953125 -4.109375 C 0.984375 -4.191406 1.015625 -4.234375 1.046875 -4.234375 C 1.066406 -4.234375 1.082031 -4.222656 1.09375 -4.203125 C 1.113281 -4.191406 1.125 -4.171875 1.125 -4.140625 L 1.125 -3.015625 L 2.234375 -3.015625 L 2.234375 -2.703125 L 1.125 -2.703125 L 1.125 -0.8125 C 1.125 -0.65625 1.160156 -0.53125 1.234375 -0.4375 C 1.304688 -0.351562 1.40625 -0.3125 1.53125 -0.3125 C 1.6875 -0.3125 1.800781 -0.363281 1.875 -0.46875 C 1.945312 -0.570312 1.984375 -0.742188 1.984375 -0.984375 L 1.984375 -1.390625 L 2.328125 -1.390625 L 2.328125 -1.046875 C 2.328125 -0.785156 2.296875 -0.570312 2.234375 -0.40625 C 2.179688 -0.25 2.085938 -0.128906 1.953125 -0.046875 C 1.828125 0.0351562 1.65625 0.078125 1.4375 0.078125 Z M 1.4375 0.078125 "/></g></g><g transform="translate(316.864143, 12.348856)"><g><path d="M 1.671875 0.078125 C 1.453125 0.078125 1.242188 0.0351562 1.046875 -0.046875 C 0.859375 -0.140625 0.703125 -0.257812 0.578125 -0.40625 C 0.460938 -0.550781 0.367188 -0.710938 0.296875 -0.890625 C 0.234375 -1.078125 0.203125 -1.269531 0.203125 -1.46875 C 0.203125 -1.644531 0.222656 -1.8125 0.265625 -1.96875 C 0.304688 -2.125 0.367188 -2.269531 0.453125 -2.40625 C 0.617188 -2.707031 0.847656 -2.910156 1.140625 -3.015625 C 1.296875 -3.078125 1.460938 -3.109375 1.640625 -3.109375 C 1.835938 -3.109375 2.015625 -3.070312 2.171875 -3 C 2.335938 -2.9375 2.484375 -2.835938 2.609375 -2.703125 C 2.734375 -2.578125 2.832031 -2.414062 2.90625 -2.21875 C 2.976562 -2.019531 3.019531 -1.796875 3.03125 -1.546875 L 0.859375 -1.546875 L 0.859375 -1.53125 C 0.859375 -1.195312 0.925781 -0.921875 1.0625 -0.703125 C 1.132812 -0.585938 1.226562 -0.5 1.34375 -0.4375 C 1.457031 -0.375 1.585938 -0.34375 1.734375 -0.34375 C 1.867188 -0.34375 1.992188 -0.367188 2.109375 -0.421875 C 2.234375 -0.484375 2.34375 -0.566406 2.4375 -0.671875 C 2.53125 -0.773438 2.597656 -0.898438 2.640625 -1.046875 L 2.96875 -0.9375 C 2.914062 -0.726562 2.828125 -0.546875 2.703125 -0.390625 C 2.585938 -0.242188 2.441406 -0.128906 2.265625 -0.046875 C 2.085938 0.0351562 1.890625 0.078125 1.671875 0.078125 Z M 2.40625 -1.859375 C 2.40625 -2.035156 2.367188 -2.191406 2.296875 -2.328125 C 2.234375 -2.460938 2.144531 -2.566406 2.03125 -2.640625 C 1.914062 -2.722656 1.789062 -2.765625 1.65625 -2.765625 C 1.519531 -2.765625 1.394531 -2.722656 1.28125 -2.640625 C 1.164062 -2.566406 1.070312 -2.460938 1 -2.328125 C 0.925781 -2.191406 0.882812 -2.035156 0.875 -1.859375 Z M 2.40625 -1.859375 "/></g></g><g transform="translate(320.098082, 12.348856)"><g><path d="M 0.140625 -0.3125 L 0.6875 -0.3125 L 0.6875 -2.703125 L 0.140625 -2.703125 L 0.140625 -3.015625 L 1.203125 -3.0625 L 1.28125 -2.40625 C 1.320312 -2.570312 1.40625 -2.722656 1.53125 -2.859375 C 1.601562 -2.929688 1.6875 -2.988281 1.78125 -3.03125 C 1.875 -3.082031 1.976562 -3.109375 2.09375 -3.109375 C 2.195312 -3.109375 2.289062 -3.085938 2.375 -3.046875 C 2.457031 -3.003906 2.523438 -2.945312 2.578125 -2.875 C 2.628906 -2.800781 2.65625 -2.71875 2.65625 -2.625 C 2.65625 -2.53125 2.632812 -2.445312 2.59375 -2.375 C 2.550781 -2.300781 2.5 -2.242188 2.4375 -2.203125 C 2.375 -2.171875 2.300781 -2.15625 2.21875 -2.15625 C 2.101562 -2.15625 2.003906 -2.1875 1.921875 -2.25 C 1.847656 -2.320312 1.8125 -2.414062 1.8125 -2.53125 C 1.8125 -2.5625 1.820312 -2.597656 1.84375 -2.640625 C 1.863281 -2.679688 1.882812 -2.71875 1.90625 -2.75 L 1.9375 -2.78125 C 1.820312 -2.78125 1.722656 -2.742188 1.640625 -2.671875 C 1.554688 -2.609375 1.488281 -2.515625 1.4375 -2.390625 C 1.34375 -2.160156 1.296875 -1.90625 1.296875 -1.625 L 1.296875 -0.3125 L 1.921875 -0.3125 L 1.921875 0 L 0.140625 0 Z M 0.140625 -0.3125 "/></g></g><g transform="translate(322.780846, 12.348856)"><g><path d="M 0.140625 -0.3125 L 0.6875 -0.3125 L 0.6875 -2.703125 L 0.140625 -2.703125 L 0.140625 -3.015625 L 1.203125 -3.0625 L 1.28125 -2.453125 C 1.332031 -2.585938 1.410156 -2.703125 1.515625 -2.796875 C 1.628906 -2.898438 1.75 -2.976562 1.875 -3.03125 C 2.007812 -3.082031 2.144531 -3.109375 2.28125 -3.109375 C 2.34375 -3.109375 2.394531 -3.101562 2.4375 -3.09375 C 2.488281 -3.082031 2.546875 -3.070312 2.609375 -3.0625 C 2.679688 -3.039062 2.742188 -3.015625 2.796875 -2.984375 C 2.847656 -2.953125 2.898438 -2.90625 2.953125 -2.84375 C 3.003906 -2.789062 3.046875 -2.726562 3.078125 -2.65625 C 3.117188 -2.582031 3.148438 -2.488281 3.171875 -2.375 C 3.203125 -2.269531 3.21875 -2.144531 3.21875 -2 L 3.21875 -0.3125 L 3.796875 -0.3125 L 3.796875 0 L 2.09375 0 L 2.09375 -0.3125 L 2.609375 -0.3125 L 2.609375 -2 C 2.609375 -2.238281 2.5625 -2.414062 2.46875 -2.53125 C 2.375 -2.65625 2.238281 -2.71875 2.0625 -2.71875 C 1.957031 -2.71875 1.859375 -2.695312 1.765625 -2.65625 C 1.679688 -2.613281 1.609375 -2.5625 1.546875 -2.5 C 1.492188 -2.425781 1.445312 -2.34375 1.40625 -2.25 C 1.363281 -2.15625 1.335938 -2.0625 1.328125 -1.96875 C 1.304688 -1.875 1.296875 -1.769531 1.296875 -1.65625 L 1.296875 -0.3125 L 1.796875 -0.3125 L 1.796875 0 L 0.140625 0 Z M 0.140625 -0.3125 "/></g></g><g transform="translate(326.602519, 12.348856)"><g><path d="M 1.671875 0.078125 C 1.453125 0.078125 1.242188 0.0351562 1.046875 -0.046875 C 0.859375 -0.140625 0.703125 -0.257812 0.578125 -0.40625 C 0.460938 -0.550781 0.367188 -0.710938 0.296875 -0.890625 C 0.234375 -1.078125 0.203125 -1.269531 0.203125 -1.46875 C 0.203125 -1.644531 0.222656 -1.8125 0.265625 -1.96875 C 0.304688 -2.125 0.367188 -2.269531 0.453125 -2.40625 C 0.617188 -2.707031 0.847656 -2.910156 1.140625 -3.015625 C 1.296875 -3.078125 1.460938 -3.109375 1.640625 -3.109375 C 1.835938 -3.109375 2.015625 -3.070312 2.171875 -3 C 2.335938 -2.9375 2.484375 -2.835938 2.609375 -2.703125 C 2.734375 -2.578125 2.832031 -2.414062 2.90625 -2.21875 C 2.976562 -2.019531 3.019531 -1.796875 3.03125 -1.546875 L 0.859375 -1.546875 L 0.859375 -1.53125 C 0.859375 -1.195312 0.925781 -0.921875 1.0625 -0.703125 C 1.132812 -0.585938 1.226562 -0.5 1.34375 -0.4375 C 1.457031 -0.375 1.585938 -0.34375 1.734375 -0.34375 C 1.867188 -0.34375 1.992188 -0.367188 2.109375 -0.421875 C 2.234375 -0.484375 2.34375 -0.566406 2.4375 -0.671875 C 2.53125 -0.773438 2.597656 -0.898438 2.640625 -1.046875 L 2.96875 -0.9375 C 2.914062 -0.726562 2.828125 -0.546875 2.703125 -0.390625 C 2.585938 -0.242188 2.441406 -0.128906 2.265625 -0.046875 C 2.085938 0.0351562 1.890625 0.078125 1.671875 0.078125 Z M 2.40625 -1.859375 C 2.40625 -2.035156 2.367188 -2.191406 2.296875 -2.328125 C 2.234375 -2.460938 2.144531 -2.566406 2.03125 -2.640625 C 1.914062 -2.722656 1.789062 -2.765625 1.65625 -2.765625 C 1.519531 -2.765625 1.394531 -2.722656 1.28125 -2.640625 C 1.164062 -2.566406 1.070312 -2.460938 1 -2.328125 C 0.925781 -2.191406 0.882812 -2.035156 0.875 -1.859375 Z M 2.40625 -1.859375 "/></g></g><g transform="translate(329.836458, 12.348856)"><g><path d="M 1.4375 0.078125 C 1.1875 0.078125 0.976562 0.00390625 0.8125 -0.140625 C 0.71875 -0.210938 0.644531 -0.304688 0.59375 -0.421875 C 0.539062 -0.546875 0.515625 -0.679688 0.515625 -0.828125 L 0.515625 -2.703125 L -0.0625 -2.703125 L -0.0625 -2.84375 C 0.0820312 -2.882812 0.210938 -2.957031 0.328125 -3.0625 C 0.441406 -3.164062 0.539062 -3.289062 0.625 -3.4375 C 0.6875 -3.5625 0.75 -3.6875 0.8125 -3.8125 C 0.875 -3.96875 0.921875 -4.066406 0.953125 -4.109375 C 0.984375 -4.191406 1.015625 -4.234375 1.046875 -4.234375 C 1.066406 -4.234375 1.082031 -4.222656 1.09375 -4.203125 C 1.113281 -4.191406 1.125 -4.171875 1.125 -4.140625 L 1.125 -3.015625 L 2.234375 -3.015625 L 2.234375 -2.703125 L 1.125 -2.703125 L 1.125 -0.8125 C 1.125 -0.65625 1.160156 -0.53125 1.234375 -0.4375 C 1.304688 -0.351562 1.40625 -0.3125 1.53125 -0.3125 C 1.6875 -0.3125 1.800781 -0.363281 1.875 -0.46875 C 1.945312 -0.570312 1.984375 -0.742188 1.984375 -0.984375 L 1.984375 -1.390625 L 2.328125 -1.390625 L 2.328125 -1.046875 C 2.328125 -0.785156 2.296875 -0.570312 2.234375 -0.40625 C 2.179688 -0.25 2.085938 -0.128906 1.953125 -0.046875 C 1.828125 0.0351562 1.65625 0.078125 1.4375 0.078125 Z M 1.4375 0.078125 "/></g></g></g><g fill="#000000" fill-opacity="1"><g transform="translate(308.274049, 20.027822)"><g><path d="M 0.09375 -0.40625 L 0.78125 -0.40625 L 0.78125 -3.828125 L 0.09375 -3.828125 L 0.09375 -4.234375 L 1.9375 -4.234375 C 2.1875 -4.234375 2.4375 -4.207031 2.6875 -4.15625 C 2.9375 -4.113281 3.160156 -4.015625 3.359375 -3.859375 C 3.441406 -3.785156 3.507812 -3.691406 3.5625 -3.578125 C 3.613281 -3.460938 3.640625 -3.332031 3.640625 -3.1875 C 3.640625 -2.945312 3.570312 -2.753906 3.4375 -2.609375 C 3.3125 -2.460938 3.117188 -2.351562 2.859375 -2.28125 C 3.191406 -2.195312 3.441406 -2.0625 3.609375 -1.875 C 3.785156 -1.6875 3.875 -1.445312 3.875 -1.15625 C 3.875 -1.007812 3.847656 -0.875 3.796875 -0.75 C 3.753906 -0.632812 3.695312 -0.535156 3.625 -0.453125 C 3.550781 -0.378906 3.457031 -0.3125 3.34375 -0.25 C 3.238281 -0.1875 3.132812 -0.140625 3.03125 -0.109375 C 2.925781 -0.078125 2.804688 -0.0507812 2.671875 -0.03125 C 2.535156 -0.0195312 2.410156 -0.0078125 2.296875 0 C 2.171875 0 2.054688 0 1.953125 0 L 0.09375 0 Z M 2.0625 -2.421875 C 2.300781 -2.421875 2.519531 -2.472656 2.71875 -2.578125 C 2.8125 -2.628906 2.882812 -2.695312 2.9375 -2.78125 C 3 -2.875 3.03125 -2.976562 3.03125 -3.09375 C 3.03125 -3.269531 2.988281 -3.414062 2.90625 -3.53125 C 2.84375 -3.625 2.726562 -3.695312 2.5625 -3.75 C 2.445312 -3.789062 2.265625 -3.816406 2.015625 -3.828125 C 1.890625 -3.828125 1.773438 -3.828125 1.671875 -3.828125 L 1.453125 -3.828125 L 1.453125 -2.421875 Z M 1.78125 -0.40625 C 2.03125 -0.40625 2.238281 -0.410156 2.40625 -0.421875 C 2.5 -0.429688 2.578125 -0.445312 2.640625 -0.46875 C 2.710938 -0.488281 2.78125 -0.507812 2.84375 -0.53125 C 2.90625 -0.5625 2.957031 -0.59375 3 -0.625 C 3.039062 -0.664062 3.078125 -0.710938 3.109375 -0.765625 C 3.171875 -0.859375 3.203125 -1 3.203125 -1.1875 C 3.203125 -1.320312 3.171875 -1.445312 3.109375 -1.5625 C 3.046875 -1.675781 2.957031 -1.769531 2.84375 -1.84375 C 2.738281 -1.914062 2.617188 -1.96875 2.484375 -2 C 2.347656 -2.03125 2.207031 -2.046875 2.0625 -2.046875 L 1.453125 -2.046875 L 1.453125 -0.40625 Z M 1.78125 -0.40625 "/></g></g><g transform="translate(312.337565, 20.027822)"><g><path d="M 1 0.078125 C 0.84375 0.078125 0.707031 0.0507812 0.59375 0 C 0.476562 -0.0625 0.382812 -0.144531 0.3125 -0.25 C 0.25 -0.351562 0.21875 -0.472656 0.21875 -0.609375 C 0.21875 -0.722656 0.242188 -0.828125 0.296875 -0.921875 C 0.347656 -1.015625 0.414062 -1.09375 0.5 -1.15625 C 0.582031 -1.21875 0.675781 -1.273438 0.78125 -1.328125 C 0.882812 -1.390625 0.992188 -1.441406 1.109375 -1.484375 C 1.328125 -1.566406 1.53125 -1.660156 1.71875 -1.765625 C 1.800781 -1.804688 1.863281 -1.863281 1.90625 -1.9375 C 1.957031 -2.007812 1.984375 -2.085938 1.984375 -2.171875 C 1.984375 -2.378906 1.929688 -2.535156 1.828125 -2.640625 C 1.734375 -2.753906 1.585938 -2.8125 1.390625 -2.8125 C 1.253906 -2.8125 1.125 -2.789062 1 -2.75 C 0.882812 -2.707031 0.796875 -2.648438 0.734375 -2.578125 C 0.847656 -2.578125 0.941406 -2.539062 1.015625 -2.46875 C 1.085938 -2.40625 1.125 -2.332031 1.125 -2.25 C 1.125 -2.164062 1.101562 -2.09375 1.0625 -2.03125 C 1.03125 -1.976562 0.984375 -1.929688 0.921875 -1.890625 C 0.867188 -1.859375 0.804688 -1.84375 0.734375 -1.84375 C 0.617188 -1.84375 0.519531 -1.882812 0.4375 -1.96875 C 0.351562 -2.050781 0.3125 -2.160156 0.3125 -2.296875 C 0.3125 -2.378906 0.335938 -2.460938 0.390625 -2.546875 C 0.441406 -2.640625 0.515625 -2.726562 0.609375 -2.8125 C 0.703125 -2.894531 0.828125 -2.960938 0.984375 -3.015625 C 1.148438 -3.078125 1.328125 -3.109375 1.515625 -3.109375 C 1.671875 -3.109375 1.8125 -3.085938 1.9375 -3.046875 C 2.0625 -3.015625 2.175781 -2.960938 2.28125 -2.890625 C 2.375 -2.804688 2.445312 -2.695312 2.5 -2.5625 C 2.5625 -2.425781 2.59375 -2.269531 2.59375 -2.09375 L 2.59375 -0.796875 C 2.59375 -0.710938 2.601562 -0.640625 2.625 -0.578125 C 2.644531 -0.515625 2.679688 -0.457031 2.734375 -0.40625 C 2.785156 -0.351562 2.847656 -0.328125 2.921875 -0.328125 C 3.160156 -0.328125 3.28125 -0.492188 3.28125 -0.828125 L 3.28125 -1.25 L 3.59375 -1.25 L 3.59375 -0.875 C 3.59375 -0.695312 3.570312 -0.539062 3.53125 -0.40625 C 3.488281 -0.28125 3.429688 -0.179688 3.359375 -0.109375 C 3.285156 -0.046875 3.203125 0 3.109375 0.03125 C 3.023438 0.0625 2.925781 0.078125 2.8125 0.078125 C 2.675781 0.078125 2.550781 0.0507812 2.4375 0 C 2.332031 -0.0507812 2.242188 -0.128906 2.171875 -0.234375 C 2.097656 -0.347656 2.050781 -0.476562 2.03125 -0.625 C 1.976562 -0.488281 1.898438 -0.367188 1.796875 -0.265625 C 1.691406 -0.160156 1.566406 -0.078125 1.421875 -0.015625 C 1.285156 0.046875 1.144531 0.078125 1 0.078125 Z M 1.15625 -0.328125 C 1.269531 -0.328125 1.394531 -0.363281 1.53125 -0.4375 C 1.664062 -0.507812 1.773438 -0.601562 1.859375 -0.71875 C 1.941406 -0.832031 1.984375 -0.941406 1.984375 -1.046875 L 1.984375 -1.640625 C 1.878906 -1.535156 1.75 -1.4375 1.59375 -1.34375 C 1.445312 -1.25 1.3125 -1.175781 1.1875 -1.125 C 1.082031 -1.070312 0.992188 -1.003906 0.921875 -0.921875 C 0.847656 -0.847656 0.8125 -0.753906 0.8125 -0.640625 C 0.8125 -0.546875 0.835938 -0.46875 0.890625 -0.40625 C 0.953125 -0.351562 1.039062 -0.328125 1.15625 -0.328125 Z M 1.15625 -0.328125 "/></g></g><g transform="translate(315.900522, 20.027822)"><g><path d="M 0.140625 -0.3125 L 0.6875 -0.3125 L 0.6875 -2.703125 L 0.140625 -2.703125 L 0.140625 -3.015625 L 1.203125 -3.0625 L 1.28125 -2.453125 C 1.332031 -2.585938 1.410156 -2.703125 1.515625 -2.796875 C 1.628906 -2.898438 1.75 -2.976562 1.875 -3.03125 C 2.007812 -3.082031 2.144531 -3.109375 2.28125 -3.109375 C 2.34375 -3.109375 2.394531 -3.101562 2.4375 -3.09375 C 2.488281 -3.082031 2.546875 -3.070312 2.609375 -3.0625 C 2.679688 -3.039062 2.742188 -3.015625 2.796875 -2.984375 C 2.847656 -2.953125 2.898438 -2.90625 2.953125 -2.84375 C 3.003906 -2.789062 3.046875 -2.726562 3.078125 -2.65625 C 3.117188 -2.582031 3.148438 -2.488281 3.171875 -2.375 C 3.203125 -2.269531 3.21875 -2.144531 3.21875 -2 L 3.21875 -0.3125 L 3.796875 -0.3125 L 3.796875 0 L 2.09375 0 L 2.09375 -0.3125 L 2.609375 -0.3125 L 2.609375 -2 C 2.609375 -2.238281 2.5625 -2.414062 2.46875 -2.53125 C 2.375 -2.65625 2.238281 -2.71875 2.0625 -2.71875 C 1.957031 -2.71875 1.859375 -2.695312 1.765625 -2.65625 C 1.679688 -2.613281 1.609375 -2.5625 1.546875 -2.5 C 1.492188 -2.425781 1.445312 -2.34375 1.40625 -2.25 C 1.363281 -2.15625 1.335938 -2.0625 1.328125 -1.96875 C 1.304688 -1.875 1.296875 -1.769531 1.296875 -1.65625 L 1.296875 -0.3125 L 1.796875 -0.3125 L 1.796875 0 L 0.140625 0 Z M 0.140625 -0.3125 "/></g></g><g transform="translate(319.722195, 20.027822)"><g><path d="M 3.1875 0.0625 C 2.988281 0.0625 2.816406 0.0078125 2.671875 -0.09375 C 2.523438 -0.195312 2.390625 -0.351562 2.265625 -0.5625 L 1.703125 -1.53125 L 1.234375 -1.171875 L 1.234375 -0.3125 L 1.71875 -0.3125 L 1.71875 0 L 0.0625 0 L 0.0625 -0.3125 L 0.640625 -0.3125 L 0.640625 -3.890625 L 0.0625 -3.890625 L 0.0625 -4.234375 L 1.234375 -4.234375 L 1.234375 -1.609375 L 2.421875 -2.703125 L 1.890625 -2.703125 L 1.890625 -3.015625 L 3.578125 -3.015625 L 3.578125 -2.703125 L 3.03125 -2.703125 L 2.0625 -1.765625 C 2.113281 -1.691406 2.1875 -1.582031 2.28125 -1.4375 C 2.382812 -1.269531 2.46875 -1.132812 2.53125 -1.03125 C 2.601562 -0.9375 2.679688 -0.835938 2.765625 -0.734375 C 2.847656 -0.617188 2.9375 -0.53125 3.03125 -0.46875 C 3.125 -0.414062 3.21875 -0.390625 3.3125 -0.390625 C 3.414062 -0.390625 3.515625 -0.40625 3.609375 -0.4375 L 3.6875 -0.0625 C 3.601562 -0.0078125 3.523438 0.0195312 3.453125 0.03125 C 3.378906 0.0507812 3.289062 0.0625 3.1875 0.0625 Z M 3.1875 0.0625 "/></g></g><g transform="translate(323.377953, 20.027822)"><g><path d="M 0.953125 -3.546875 C 0.867188 -3.546875 0.796875 -3.566406 0.734375 -3.609375 C 0.671875 -3.648438 0.617188 -3.703125 0.578125 -3.765625 C 0.546875 -3.828125 0.53125 -3.894531 0.53125 -3.96875 C 0.53125 -4.039062 0.546875 -4.109375 0.578125 -4.171875 C 0.617188 -4.242188 0.671875 -4.296875 0.734375 -4.328125 C 0.796875 -4.367188 0.867188 -4.390625 0.953125 -4.390625 C 1.023438 -4.390625 1.09375 -4.367188 1.15625 -4.328125 C 1.21875 -4.296875 1.265625 -4.242188 1.296875 -4.171875 C 1.335938 -4.109375 1.359375 -4.039062 1.359375 -3.96875 C 1.359375 -3.894531 1.335938 -3.828125 1.296875 -3.765625 C 1.265625 -3.703125 1.21875 -3.648438 1.15625 -3.609375 C 1.09375 -3.566406 1.023438 -3.546875 0.953125 -3.546875 Z M 0.15625 0 L 0.15625 -0.3125 L 0.703125 -0.3125 L 0.703125 -2.703125 L 0.15625 -2.703125 L 0.15625 -3.015625 L 1.296875 -3.015625 L 1.296875 -0.3125 L 1.859375 -0.3125 L 1.859375 0 Z M 0.15625 0 "/></g></g><g transform="translate(325.248014, 20.027822)"><g><path d="M 0.140625 -0.3125 L 0.6875 -0.3125 L 0.6875 -2.703125 L 0.140625 -2.703125 L 0.140625 -3.015625 L 1.203125 -3.0625 L 1.28125 -2.453125 C 1.332031 -2.585938 1.410156 -2.703125 1.515625 -2.796875 C 1.628906 -2.898438 1.75 -2.976562 1.875 -3.03125 C 2.007812 -3.082031 2.144531 -3.109375 2.28125 -3.109375 C 2.34375 -3.109375 2.394531 -3.101562 2.4375 -3.09375 C 2.488281 -3.082031 2.546875 -3.070312 2.609375 -3.0625 C 2.679688 -3.039062 2.742188 -3.015625 2.796875 -2.984375 C 2.847656 -2.953125 2.898438 -2.90625 2.953125 -2.84375 C 3.003906 -2.789062 3.046875 -2.726562 3.078125 -2.65625 C 3.117188 -2.582031 3.148438 -2.488281 3.171875 -2.375 C 3.203125 -2.269531 3.21875 -2.144531 3.21875 -2 L 3.21875 -0.3125 L 3.796875 -0.3125 L 3.796875 0 L 2.09375 0 L 2.09375 -0.3125 L 2.609375 -0.3125 L 2.609375 -2 C 2.609375 -2.238281 2.5625 -2.414062 2.46875 -2.53125 C 2.375 -2.65625 2.238281 -2.71875 2.0625 -2.71875 C 1.957031 -2.71875 1.859375 -2.695312 1.765625 -2.65625 C 1.679688 -2.613281 1.609375 -2.5625 1.546875 -2.5 C 1.492188 -2.425781 1.445312 -2.34375 1.40625 -2.25 C 1.363281 -2.15625 1.335938 -2.0625 1.328125 -1.96875 C 1.304688 -1.875 1.296875 -1.769531 1.296875 -1.65625 L 1.296875 -0.3125 L 1.796875 -0.3125 L 1.796875 0 L 0.140625 0 Z M 0.140625 -0.3125 "/></g></g><g transform="translate(329.069686, 20.027822)"><g><path d="M 1.546875 1.5 C 1.140625 1.5 0.84375 1.40625 0.65625 1.21875 C 0.550781 1.113281 0.5 0.984375 0.5 0.828125 C 0.5 0.691406 0.539062 0.582031 0.625 0.5 C 0.71875 0.425781 0.832031 0.390625 0.96875 0.390625 C 1.039062 0.390625 1.101562 0.40625 1.15625 0.4375 C 1.21875 0.476562 1.265625 0.523438 1.296875 0.578125 C 1.328125 0.640625 1.34375 0.707031 1.34375 0.78125 C 1.34375 0.851562 1.316406 0.925781 1.265625 1 C 1.222656 1.070312 1.171875 1.125 1.109375 1.15625 C 1.234375 1.1875 1.347656 1.203125 1.453125 1.203125 C 1.742188 1.203125 1.960938 1.09375 2.109375 0.875 C 2.253906 0.65625 2.328125 0.34375 2.328125 -0.0625 L 2.328125 -0.5625 C 2.285156 -0.445312 2.222656 -0.335938 2.140625 -0.234375 C 2.054688 -0.140625 1.953125 -0.0625 1.828125 0 C 1.710938 0.0507812 1.585938 0.078125 1.453125 0.078125 C 1.296875 0.078125 1.148438 0.0507812 1.015625 0 C 0.878906 -0.0625 0.765625 -0.144531 0.671875 -0.25 C 0.578125 -0.351562 0.492188 -0.46875 0.421875 -0.59375 C 0.359375 -0.726562 0.3125 -0.875 0.28125 -1.03125 C 0.25 -1.1875 0.234375 -1.34375 0.234375 -1.5 C 0.234375 -1.695312 0.257812 -1.890625 0.3125 -2.078125 C 0.363281 -2.273438 0.441406 -2.445312 0.546875 -2.59375 C 0.648438 -2.75 0.78125 -2.875 0.9375 -2.96875 C 1.09375 -3.0625 1.269531 -3.109375 1.46875 -3.109375 C 1.582031 -3.109375 1.695312 -3.082031 1.8125 -3.03125 C 1.9375 -2.976562 2.046875 -2.90625 2.140625 -2.8125 C 2.234375 -2.71875 2.296875 -2.609375 2.328125 -2.484375 L 2.40625 -3.015625 L 3.34375 -3.015625 L 3.34375 -2.6875 L 2.9375 -2.6875 L 2.9375 -0.140625 C 2.9375 0.222656 2.867188 0.535156 2.734375 0.796875 C 2.660156 0.941406 2.570312 1.066406 2.46875 1.171875 C 2.363281 1.273438 2.234375 1.351562 2.078125 1.40625 C 1.921875 1.46875 1.742188 1.5 1.546875 1.5 Z M 1.578125 -0.28125 C 1.734375 -0.28125 1.875 -0.335938 2 -0.453125 C 2.125 -0.566406 2.210938 -0.710938 2.265625 -0.890625 C 2.328125 -1.066406 2.359375 -1.25 2.359375 -1.4375 C 2.359375 -1.695312 2.320312 -1.921875 2.25 -2.109375 C 2.1875 -2.304688 2.097656 -2.457031 1.984375 -2.5625 C 1.867188 -2.675781 1.734375 -2.734375 1.578125 -2.734375 C 1.429688 -2.734375 1.300781 -2.675781 1.1875 -2.5625 C 1.070312 -2.445312 0.984375 -2.300781 0.921875 -2.125 C 0.867188 -1.945312 0.84375 -1.753906 0.84375 -1.546875 C 0.84375 -1.210938 0.894531 -0.925781 1 -0.6875 C 1.0625 -0.5625 1.140625 -0.460938 1.234375 -0.390625 C 1.328125 -0.316406 1.441406 -0.28125 1.578125 -0.28125 Z M 1.578125 -0.28125 "/></g></g></g></svg>