<svg xmlns="http://www.w3.org/2000/svg" xmlns:xlink="http://www.w3.org/1999/xlink" width="400" zoomAndPan="magnify" viewBox="0 0 300 30.000001" height="40" preserveAspectRatio="xMidYMid meet" version="1.0"><defs><clipPath id="80ff0ba14b"><path d="M 6.890625 2.570312 L 44.632812 2.570312 L 44.632812 26.480469 L 6.890625 26.480469 Z M 6.890625 2.570312 " clip-rule="nonzero"/></clipPath><clipPath id="df7dfc9f57"><path d="M 11 10.800781 L 14.910156 10.800781 L 14.910156 16.785156 L 11 16.785156 Z M 11 10.800781 " clip-rule="nonzero"/></clipPath><clipPath id="176d576641"><path d="M 9.367188 12 L 42.390625 12 L 42.390625 17.632812 L 9.367188 17.632812 Z M 9.367188 12 " clip-rule="nonzero"/></clipPath><clipPath id="6183d9e32c"><path d="M 48.300781 2.570312 L 86.042969 2.570312 L 86.042969 26.480469 L 48.300781 26.480469 Z M 48.300781 2.570312 " clip-rule="nonzero"/></clipPath><clipPath id="29148a1b04"><path d="M 89.714844 2.570312 L 127.457031 2.570312 L 127.457031 26.480469 L 89.714844 26.480469 Z M 89.714844 2.570312 " clip-rule="nonzero"/></clipPath><clipPath id="87395176ea"><path d="M 131.128906 2.570312 L 168.871094 2.570312 L 168.871094 26.480469 L 131.128906 26.480469 Z M 131.128906 2.570312 " clip-rule="nonzero"/></clipPath><clipPath id="7a28ddae4e"><path d="M 172.542969 2.570312 L 210.28125 2.570312 L 210.28125 26.480469 L 172.542969 26.480469 Z M 172.542969 2.570312 " clip-rule="nonzero"/></clipPath><clipPath id="39834c3681"><path d="M 213.953125 2.570312 L 251.695312 2.570312 L 251.695312 26.480469 L 213.953125 26.480469 Z M 213.953125 2.570312 " clip-rule="nonzero"/></clipPath><clipPath id="6de91143a8"><path d="M 111 9.207031 L 124.945312 9.207031 L 124.945312 19.457031 L 111 19.457031 Z M 111 9.207031 " clip-rule="nonzero"/></clipPath><clipPath id="527b29e29d"><path d="M 92.59375 10.519531 L 110.289062 10.519531 L 110.289062 19.457031 L 92.59375 19.457031 Z M 92.59375 10.519531 " clip-rule="nonzero"/></clipPath><clipPath id="e03ec47f6e"><path d="M 162.390625 11.414062 L 166.644531 11.414062 L 166.644531 19.472656 L 162.390625 19.472656 Z M 162.390625 11.414062 " clip-rule="nonzero"/></clipPath><clipPath id="570f3eee80"><path d="M 133.625 10.800781 L 163 10.800781 L 163 19.679688 L 133.625 19.679688 Z M 133.625 10.800781 " clip-rule="nonzero"/></clipPath><clipPath id="4fc73bb414"><path d="M 221.5625 22 L 245.3125 22 L 245.3125 25.085938 L 221.5625 25.085938 Z M 221.5625 22 " clip-rule="nonzero"/></clipPath><clipPath id="77f8e57fa1"><path d="M 244 17.679688 L 245.3125 17.679688 L 245.3125 18.574219 L 244 18.574219 Z M 244 17.679688 " clip-rule="nonzero"/></clipPath><clipPath id="50762cbb35"><path d="M 220.378906 5.277344 L 233 5.277344 L 233 21.261719 L 220.378906 21.261719 Z M 220.378906 5.277344 " clip-rule="nonzero"/></clipPath><clipPath id="147963d9cd"><path d="M 232.160156 5.277344 L 245.3125 5.277344 L 245.3125 21.261719 L 232.160156 21.261719 Z M 232.160156 5.277344 " clip-rule="nonzero"/></clipPath><clipPath id="73d3107248"><path d="M 255.367188 2.570312 L 293.109375 2.570312 L 293.109375 26.480469 L 255.367188 26.480469 Z M 255.367188 2.570312 " clip-rule="nonzero"/></clipPath><clipPath id="44ae11f489"><path d="M 256.886719 8.304688 L 269.519531 8.304688 L 269.519531 21.261719 L 256.886719 21.261719 Z M 256.886719 8.304688 " clip-rule="nonzero"/></clipPath></defs><g clip-path="url(#80ff0ba14b)"><path fill="#d8d8d8" d="M 8.160156 2.570312 L 43.359375 2.570312 C 43.695312 2.570312 44.019531 2.707031 44.257812 2.949219 C 44.496094 3.191406 44.628906 3.519531 44.628906 3.859375 L 44.628906 25.199219 C 44.628906 25.539062 44.496094 25.867188 44.257812 26.109375 C 44.019531 26.34375 43.695312 26.480469 43.359375 26.480469 L 8.160156 26.480469 C 7.828125 26.480469 7.503906 26.34375 7.265625 26.109375 C 7.027344 25.867188 6.890625 25.539062 6.890625 25.199219 L 6.890625 3.859375 C 6.890625 3.519531 7.027344 3.191406 7.265625 2.949219 C 7.503906 2.707031 7.828125 2.570312 8.160156 2.570312 " fill-opacity="1" fill-rule="nonzero"/></g><g clip-path="url(#df7dfc9f57)"><path fill="#3395ff" d="M 11.503906 12.597656 L 11.230469 13.585938 L 12.800781 12.589844 L 11.773438 16.34375 L 12.820312 16.34375 L 14.332031 10.800781 " fill-opacity="1" fill-rule="nonzero"/></g><g clip-path="url(#176d576641)"><path fill="#072654" d="M 9.816406 14.769531 L 9.386719 16.34375 L 11.523438 16.34375 L 12.394531 13.136719 Z M 17.238281 13.375 C 17.1875 13.570312 17.085938 13.707031 16.933594 13.796875 C 16.785156 13.886719 16.574219 13.933594 16.304688 13.933594 L 15.445312 13.933594 L 15.746094 12.824219 L 16.605469 12.824219 C 16.878906 12.824219 17.066406 12.867188 17.164062 12.960938 C 17.265625 13.050781 17.289062 13.1875 17.238281 13.378906 M 18.132812 13.355469 C 18.242188 12.957031 18.195312 12.648438 17.992188 12.433594 C 17.792969 12.222656 17.441406 12.113281 16.941406 12.113281 L 15.019531 12.113281 L 13.859375 16.347656 L 14.796875 16.347656 L 15.261719 14.640625 L 15.875 14.640625 C 16.011719 14.640625 16.121094 14.664062 16.199219 14.703125 C 16.277344 14.75 16.324219 14.828125 16.339844 14.9375 L 16.507812 16.347656 L 17.507812 16.347656 L 17.34375 15.035156 C 17.308594 14.738281 17.175781 14.570312 16.933594 14.515625 C 17.242188 14.429688 17.496094 14.285156 17.703125 14.082031 C 17.914062 13.878906 18.054688 13.636719 18.132812 13.359375 M 20.402344 14.832031 C 20.320312 15.117188 20.203125 15.335938 20.042969 15.488281 C 19.875 15.636719 19.683594 15.714844 19.457031 15.714844 C 19.226562 15.714844 19.070312 15.640625 18.988281 15.492188 C 18.902344 15.34375 18.902344 15.128906 18.980469 14.847656 C 19.054688 14.566406 19.179688 14.34375 19.34375 14.1875 C 19.515625 14.027344 19.714844 13.949219 19.9375 13.949219 C 20.167969 13.949219 20.320312 14.027344 20.402344 14.175781 C 20.480469 14.332031 20.480469 14.550781 20.40625 14.835938 Z M 20.8125 13.335938 L 20.695312 13.761719 C 20.644531 13.605469 20.546875 13.484375 20.402344 13.394531 C 20.257812 13.300781 20.078125 13.257812 19.863281 13.257812 C 19.597656 13.257812 19.34375 13.324219 19.105469 13.457031 C 18.863281 13.589844 18.648438 13.777344 18.46875 14.019531 C 18.285156 14.261719 18.15625 14.535156 18.070312 14.84375 C 17.988281 15.15625 17.96875 15.429688 18.019531 15.664062 C 18.074219 15.902344 18.183594 16.082031 18.351562 16.207031 C 18.519531 16.335938 18.738281 16.398438 19.003906 16.398438 C 19.21875 16.402344 19.425781 16.355469 19.617188 16.269531 C 19.8125 16.183594 19.972656 16.0625 20.113281 15.902344 L 19.992188 16.351562 L 20.894531 16.351562 L 21.71875 13.335938 Z M 24.964844 13.335938 L 22.339844 13.335938 L 22.152344 14.003906 L 23.683594 14.003906 L 21.664062 15.71875 L 21.492188 16.347656 L 24.203125 16.347656 L 24.386719 15.675781 L 22.746094 15.675781 L 24.800781 13.9375 M 27.28125 14.828125 C 27.195312 15.125 27.078125 15.347656 26.917969 15.492188 C 26.757812 15.636719 26.566406 15.710938 26.339844 15.710938 C 25.867188 15.710938 25.710938 15.417969 25.871094 14.828125 C 25.953125 14.535156 26.074219 14.3125 26.234375 14.164062 C 26.398438 14.015625 26.59375 13.9375 26.824219 13.9375 C 27.050781 13.9375 27.199219 14.015625 27.28125 14.164062 C 27.359375 14.3125 27.359375 14.535156 27.28125 14.828125 M 27.808594 13.445312 C 27.601562 13.320312 27.335938 13.257812 27.011719 13.257812 C 26.683594 13.257812 26.378906 13.320312 26.101562 13.445312 C 25.816406 13.570312 25.578125 13.757812 25.386719 13.992188 C 25.191406 14.230469 25.046875 14.507812 24.960938 14.828125 C 24.875 15.140625 24.863281 15.421875 24.929688 15.65625 C 24.996094 15.894531 25.136719 16.078125 25.34375 16.203125 C 25.554688 16.332031 25.824219 16.394531 26.152344 16.394531 C 26.476562 16.394531 26.78125 16.332031 27.054688 16.203125 C 27.332031 16.074219 27.570312 15.894531 27.765625 15.65625 C 27.964844 15.417969 28.105469 15.140625 28.191406 14.824219 C 28.277344 14.503906 28.289062 14.230469 28.222656 13.992188 C 28.15625 13.753906 28.019531 13.570312 27.8125 13.441406 M 31.035156 14.136719 L 31.265625 13.320312 C 31.183594 13.277344 31.085938 13.257812 30.953125 13.257812 C 30.746094 13.257812 30.550781 13.308594 30.355469 13.410156 C 30.191406 13.5 30.054688 13.617188 29.9375 13.769531 L 30.054688 13.332031 L 29.148438 13.332031 L 28.320312 16.34375 L 29.234375 16.34375 L 29.664062 14.769531 C 29.730469 14.539062 29.839844 14.359375 30 14.234375 C 30.164062 14.101562 30.367188 14.039062 30.613281 14.039062 C 30.761719 14.039062 30.898438 14.070312 31.035156 14.136719 M 33.582031 14.839844 C 33.503906 15.125 33.386719 15.335938 33.222656 15.488281 C 33.0625 15.636719 32.867188 15.707031 32.640625 15.707031 C 32.414062 15.707031 32.257812 15.636719 32.179688 15.484375 C 32.097656 15.335938 32.09375 15.117188 32.171875 14.832031 C 32.246094 14.542969 32.367188 14.324219 32.535156 14.171875 C 32.699219 14.019531 32.894531 13.941406 33.121094 13.941406 C 33.34375 13.941406 33.492188 14.023438 33.574219 14.179688 C 33.65625 14.335938 33.65625 14.558594 33.578125 14.839844 M 34.222656 13.453125 C 34.046875 13.320312 33.835938 13.253906 33.570312 13.253906 C 33.339844 13.253906 33.121094 13.300781 32.914062 13.40625 C 32.703125 13.507812 32.535156 13.652344 32.40625 13.832031 L 32.410156 13.808594 L 32.5625 13.332031 L 31.667969 13.332031 L 31.441406 14.164062 L 31.433594 14.195312 L 30.492188 17.632812 L 31.410156 17.632812 L 31.882812 15.902344 C 31.929688 16.054688 32.027344 16.171875 32.171875 16.261719 C 32.320312 16.347656 32.5 16.394531 32.714844 16.394531 C 32.980469 16.394531 33.234375 16.332031 33.476562 16.203125 C 33.71875 16.074219 33.925781 15.894531 34.105469 15.660156 C 34.28125 15.421875 34.414062 15.148438 34.496094 14.839844 C 34.582031 14.53125 34.601562 14.257812 34.550781 14.011719 C 34.5 13.769531 34.394531 13.585938 34.222656 13.453125 M 37.261719 14.832031 C 37.183594 15.113281 37.0625 15.335938 36.902344 15.480469 C 36.738281 15.636719 36.546875 15.707031 36.316406 15.707031 C 36.085938 15.707031 35.933594 15.636719 35.847656 15.488281 C 35.765625 15.335938 35.761719 15.125 35.839844 14.839844 C 35.917969 14.5625 36.039062 14.339844 36.207031 14.179688 C 36.375 14.023438 36.574219 13.941406 36.800781 13.941406 C 37.027344 13.941406 37.179688 14.019531 37.261719 14.171875 C 37.339844 14.324219 37.34375 14.542969 37.261719 14.832031 Z M 37.671875 13.332031 L 37.554688 13.757812 C 37.503906 13.601562 37.410156 13.480469 37.261719 13.390625 C 37.113281 13.300781 36.9375 13.253906 36.722656 13.253906 C 36.460938 13.253906 36.203125 13.320312 35.964844 13.453125 C 35.722656 13.585938 35.507812 13.769531 35.328125 14.011719 C 35.144531 14.257812 35.015625 14.53125 34.929688 14.839844 C 34.84375 15.148438 34.828125 15.421875 34.878906 15.660156 C 34.929688 15.894531 35.039062 16.074219 35.210938 16.203125 C 35.378906 16.332031 35.597656 16.394531 35.863281 16.394531 C 36.078125 16.394531 36.285156 16.347656 36.476562 16.261719 C 36.671875 16.175781 36.832031 16.054688 36.96875 15.902344 L 36.847656 16.34375 L 37.753906 16.34375 L 38.578125 13.332031 Z M 42.367188 13.332031 L 41.8125 13.332031 C 41.796875 13.332031 41.78125 13.332031 41.765625 13.332031 L 41.480469 13.332031 L 41.332031 13.535156 L 41.292969 13.578125 L 41.277344 13.601562 L 40.105469 15.203125 L 39.863281 13.332031 L 38.90625 13.332031 L 39.390625 16.175781 L 38.320312 17.632812 L 39.273438 17.632812 L 39.535156 17.269531 C 39.539062 17.261719 39.546875 17.25 39.558594 17.238281 L 39.859375 16.820312 L 39.867188 16.804688 L 41.222656 14.921875 L 42.367188 13.335938 Z M 42.367188 13.332031 " fill-opacity="1" fill-rule="nonzero"/></g><g clip-path="url(#6183d9e32c)"><path fill="#d8d8d8" d="M 49.574219 2.570312 L 84.769531 2.570312 C 85.109375 2.570312 85.433594 2.707031 85.671875 2.949219 C 85.90625 3.191406 86.042969 3.519531 86.042969 3.859375 L 86.042969 25.199219 C 86.042969 25.539062 85.90625 25.867188 85.671875 26.109375 C 85.433594 26.34375 85.109375 26.480469 84.769531 26.480469 L 49.574219 26.480469 C 49.238281 26.480469 48.914062 26.34375 48.675781 26.109375 C 48.4375 25.867188 48.300781 25.539062 48.300781 25.199219 L 48.300781 3.859375 C 48.300781 3.519531 48.4375 3.191406 48.675781 2.949219 C 48.914062 2.707031 49.238281 2.570312 49.574219 2.570312 " fill-opacity="1" fill-rule="nonzero"/></g><g clip-path="url(#29148a1b04)"><path fill="#d8d8d8" d="M 90.988281 2.570312 L 126.183594 2.570312 C 126.523438 2.570312 126.847656 2.707031 127.085938 2.949219 C 127.320312 3.191406 127.457031 3.519531 127.457031 3.859375 L 127.457031 25.199219 C 127.457031 25.539062 127.320312 25.867188 127.085938 26.109375 C 126.847656 26.34375 126.523438 26.480469 126.183594 26.480469 L 90.988281 26.480469 C 90.652344 26.480469 90.328125 26.34375 90.089844 26.109375 C 89.851562 25.867188 89.714844 25.539062 89.714844 25.199219 L 89.714844 3.859375 C 89.714844 3.519531 89.851562 3.191406 90.089844 2.949219 C 90.328125 2.707031 90.652344 2.570312 90.988281 2.570312 " fill-opacity="1" fill-rule="nonzero"/></g><g clip-path="url(#87395176ea)"><path fill="#d8d8d8" d="M 132.398438 2.570312 L 167.597656 2.570312 C 167.9375 2.570312 168.257812 2.707031 168.496094 2.949219 C 168.734375 3.191406 168.867188 3.519531 168.867188 3.859375 L 168.867188 25.199219 C 168.867188 25.539062 168.734375 25.867188 168.496094 26.109375 C 168.257812 26.34375 167.9375 26.480469 167.597656 26.480469 L 132.398438 26.480469 C 132.066406 26.480469 131.742188 26.34375 131.503906 26.109375 C 131.265625 25.867188 131.128906 25.539062 131.128906 25.199219 L 131.128906 3.859375 C 131.128906 3.519531 131.265625 3.191406 131.503906 2.949219 C 131.742188 2.707031 132.066406 2.570312 132.398438 2.570312 " fill-opacity="1" fill-rule="nonzero"/></g><g clip-path="url(#7a28ddae4e)"><path fill="#d8d8d8" d="M 173.8125 2.570312 L 209.007812 2.570312 C 209.347656 2.570312 209.671875 2.707031 209.910156 2.949219 C 210.144531 3.191406 210.28125 3.519531 210.28125 3.859375 L 210.28125 25.199219 C 210.28125 25.539062 210.144531 25.867188 209.910156 26.109375 C 209.671875 26.34375 209.347656 26.480469 209.007812 26.480469 L 173.8125 26.480469 C 173.476562 26.480469 173.15625 26.34375 172.914062 26.109375 C 172.675781 25.867188 172.539062 25.539062 172.539062 25.199219 L 172.539062 3.859375 C 172.539062 3.519531 172.675781 3.191406 172.914062 2.949219 C 173.15625 2.707031 173.476562 2.570312 173.8125 2.570312 " fill-opacity="1" fill-rule="nonzero"/></g><g clip-path="url(#39834c3681)"><path fill="#d8d8d8" d="M 215.226562 2.570312 L 250.421875 2.570312 C 250.761719 2.570312 251.085938 2.707031 251.324219 2.949219 C 251.558594 3.191406 251.695312 3.519531 251.695312 3.859375 L 251.695312 25.199219 C 251.695312 25.539062 251.558594 25.867188 251.324219 26.109375 C 251.085938 26.34375 250.761719 26.480469 250.421875 26.480469 L 215.226562 26.480469 C 214.890625 26.480469 214.566406 26.34375 214.328125 26.109375 C 214.089844 25.867188 213.953125 25.539062 213.953125 25.199219 L 213.953125 3.859375 C 213.953125 3.519531 214.089844 3.191406 214.328125 2.949219 C 214.566406 2.707031 214.890625 2.570312 215.226562 2.570312 " fill-opacity="1" fill-rule="nonzero"/></g><path fill="#097939" d="M 77.828125 18.523438 L 82.011719 14.65625 L 80.03125 10.65625 Z M 77.828125 18.523438 " fill-opacity="1" fill-rule="evenodd"/><path fill="#ed752e" d="M 76.421875 18.523438 L 80.601562 14.65625 L 78.621094 10.65625 Z M 76.421875 18.523438 " fill-opacity="1" fill-rule="evenodd"/><path fill="#747474" d="M 56.441406 10.699219 L 54.679688 17.054688 L 60.929688 17.101562 L 62.648438 10.699219 L 64.230469 10.699219 L 62.171875 18.140625 C 62.089844 18.425781 61.792969 18.65625 61.5 18.65625 L 53.492188 18.65625 C 53.003906 18.65625 52.714844 18.269531 52.847656 17.796875 L 54.8125 10.699219 Z M 75.761719 10.65625 L 77.347656 10.65625 L 75.144531 18.65625 L 73.515625 18.65625 Z M 64.40625 13.988281 L 72.328125 13.941406 L 72.859375 12.253906 L 64.800781 12.253906 L 65.285156 10.699219 L 73.867188 10.617188 C 74.402344 10.613281 74.71875 11.035156 74.582031 11.558594 L 73.773438 14.554688 C 73.628906 15.074219 73.082031 15.5 72.546875 15.5 L 65.460938 15.5 L 64.625 18.789062 L 63.085938 18.789062 Z M 64.40625 13.988281 " fill-opacity="1" fill-rule="evenodd"/><g clip-path="url(#6de91143a8)"><path fill="#54c1f0" d="M 124.835938 12.234375 C 124.542969 11.382812 123.742188 10.773438 122.800781 10.773438 L 122.78125 10.773438 C 122.171875 10.773438 121.621094 11.035156 121.226562 11.445312 C 120.835938 11.035156 120.285156 10.773438 119.675781 10.773438 L 119.652344 10.773438 C 119.117188 10.773438 118.625 10.972656 118.25 11.300781 L 118.25 11.132812 C 118.234375 10.96875 118.101562 10.835938 117.933594 10.835938 L 116.488281 10.835938 C 116.3125 10.835938 116.171875 10.980469 116.171875 11.160156 L 116.171875 19.070312 C 116.171875 19.25 116.3125 19.394531 116.488281 19.394531 L 117.933594 19.394531 C 118.09375 19.394531 118.226562 19.273438 118.246094 19.113281 L 118.246094 13.433594 C 118.246094 13.417969 118.246094 13.398438 118.25 13.378906 C 118.273438 13.128906 118.457031 12.917969 118.746094 12.890625 L 119.011719 12.890625 C 119.132812 12.902344 119.234375 12.945312 119.316406 13.011719 C 119.441406 13.109375 119.511719 13.269531 119.511719 13.433594 L 119.519531 19.085938 C 119.519531 19.265625 119.660156 19.410156 119.835938 19.410156 L 121.277344 19.410156 C 121.445312 19.410156 121.585938 19.273438 121.59375 19.105469 L 121.59375 13.429688 C 121.59375 13.242188 121.679688 13.074219 121.828125 12.972656 C 121.902344 12.925781 121.992188 12.894531 122.09375 12.882812 L 122.359375 12.882812 C 122.671875 12.910156 122.863281 13.152344 122.859375 13.429688 L 122.863281 19.070312 C 122.863281 19.25 123.007812 19.394531 123.183594 19.394531 L 124.625 19.394531 C 124.800781 19.394531 124.945312 19.25 124.945312 19.070312 L 124.945312 13 C 124.945312 12.589844 124.898438 12.414062 124.835938 12.234375 Z M 115.074219 10.859375 L 114.25 10.859375 L 114.25 9.503906 C 114.25 9.339844 114.121094 9.210938 113.957031 9.210938 C 113.941406 9.210938 113.921875 9.214844 113.902344 9.21875 C 112.988281 9.46875 113.171875 10.75 111.503906 10.859375 L 111.34375 10.859375 C 111.320312 10.859375 111.292969 10.863281 111.269531 10.867188 C 111.128906 10.898438 111.023438 11.027344 111.023438 11.179688 L 111.023438 12.636719 C 111.023438 12.8125 111.167969 12.960938 111.34375 12.960938 L 112.210938 12.960938 L 112.207031 19.136719 C 112.207031 19.308594 112.351562 19.453125 112.527344 19.453125 L 113.949219 19.453125 C 114.125 19.453125 114.265625 19.308594 114.265625 19.136719 L 114.269531 12.960938 L 115.074219 12.960938 C 115.25 12.960938 115.394531 12.8125 115.394531 12.636719 L 115.394531 11.179688 C 115.394531 11 115.25 10.859375 115.074219 10.859375 Z M 115.074219 10.859375 " fill-opacity="1" fill-rule="nonzero"/></g><g clip-path="url(#527b29e29d)"><path fill="#233266" d="M 109.886719 10.859375 L 108.445312 10.859375 C 108.269531 10.859375 108.128906 11 108.128906 11.179688 L 108.128906 14.191406 C 108.125 14.378906 107.976562 14.527344 107.789062 14.527344 L 107.1875 14.527344 C 107 14.527344 106.847656 14.375 106.847656 14.1875 L 106.839844 11.179688 C 106.839844 11 106.699219 10.859375 106.523438 10.859375 L 105.082031 10.859375 C 104.90625 10.859375 104.765625 11 104.765625 11.179688 L 104.765625 14.480469 C 104.765625 15.738281 105.648438 16.628906 106.890625 16.628906 C 106.890625 16.628906 107.820312 16.628906 107.847656 16.636719 C 108.015625 16.652344 108.148438 16.796875 108.148438 16.96875 C 108.148438 17.144531 108.019531 17.285156 107.855469 17.308594 C 107.84375 17.308594 107.839844 17.3125 107.832031 17.3125 L 105.722656 17.320312 C 105.542969 17.320312 105.402344 17.464844 105.402344 17.640625 L 105.402344 19.101562 C 105.402344 19.273438 105.542969 19.421875 105.722656 19.421875 L 108.078125 19.421875 C 109.320312 19.421875 110.203125 18.527344 110.203125 17.269531 L 110.203125 11.179688 C 110.203125 11 110.0625 10.859375 109.886719 10.859375 Z M 96.058594 10.859375 L 92.90625 10.859375 C 92.734375 10.859375 92.59375 11 92.59375 11.171875 L 92.59375 12.601562 C 92.59375 12.601562 92.59375 12.605469 92.59375 12.609375 C 92.59375 12.617188 92.59375 12.625 92.59375 12.628906 L 92.59375 19.089844 C 92.59375 19.265625 92.726562 19.40625 92.886719 19.410156 L 94.355469 19.410156 C 94.53125 19.410156 94.675781 19.269531 94.675781 19.089844 L 94.679688 16.875 L 96.058594 16.875 C 97.210938 16.875 98.015625 16.066406 98.015625 14.898438 L 98.015625 12.839844 C 98.015625 11.667969 97.210938 10.859375 96.058594 10.859375 Z M 95.933594 14.425781 C 95.933594 14.613281 95.78125 14.769531 95.59375 14.769531 L 94.679688 14.769531 L 94.679688 12.96875 L 95.59375 12.96875 C 95.78125 12.96875 95.933594 13.121094 95.933594 13.308594 Z M 101.683594 10.867188 L 99.683594 10.867188 C 99.507812 10.867188 99.367188 11 99.367188 11.167969 L 99.367188 11.734375 C 99.367188 11.738281 99.367188 11.742188 99.367188 11.746094 C 99.367188 11.75 99.367188 11.753906 99.367188 11.757812 L 99.367188 12.535156 C 99.367188 12.710938 99.515625 12.855469 99.703125 12.855469 L 101.609375 12.855469 C 101.757812 12.878906 101.875 12.988281 101.894531 13.164062 L 101.894531 13.351562 C 101.875 13.515625 101.757812 13.636719 101.613281 13.648438 L 100.671875 13.648438 C 99.417969 13.648438 98.523438 14.492188 98.523438 15.671875 L 98.523438 17.371094 C 98.523438 18.542969 99.292969 19.378906 100.539062 19.378906 L 103.152344 19.378906 C 103.621094 19.378906 104 19.019531 104 18.578125 L 104 13.054688 C 104 11.710938 103.320312 10.867188 101.683594 10.867188 Z M 101.914062 17.171875 C 101.914062 17.195312 101.910156 17.210938 101.90625 17.230469 C 101.90625 17.242188 101.902344 17.261719 101.894531 17.273438 C 101.847656 17.402344 101.726562 17.496094 101.574219 17.496094 L 100.972656 17.496094 C 100.785156 17.496094 100.636719 17.351562 100.636719 17.171875 L 100.636719 16.902344 C 100.636719 16.898438 100.636719 16.894531 100.636719 16.890625 L 100.636719 15.929688 C 100.636719 15.75 100.785156 15.609375 100.972656 15.609375 L 101.574219 15.609375 C 101.761719 15.609375 101.914062 15.75 101.914062 15.929688 Z M 101.914062 17.171875 " fill-opacity="1" fill-rule="nonzero"/></g><g clip-path="url(#e03ec47f6e)"><path fill="#018c45" d="M 164.785156 11.464844 L 166.644531 15.238281 L 162.734375 19.023438 Z M 164.785156 11.464844 " fill-opacity="1" fill-rule="nonzero"/></g><path fill="#f47920" d="M 163.492188 11.464844 L 165.351562 15.238281 L 161.441406 19.023438 Z M 163.492188 11.464844 " fill-opacity="1" fill-rule="nonzero"/><g clip-path="url(#570f3eee80)"><path fill="#29387e" d="M 136.648438 13.75 L 137.554688 13.75 C 137.871094 13.75 138.101562 13.703125 138.246094 13.609375 C 138.390625 13.515625 138.5 13.351562 138.5625 13.113281 C 138.625 12.871094 138.609375 12.710938 138.515625 12.613281 C 138.421875 12.519531 138.195312 12.472656 137.84375 12.472656 L 136.992188 12.472656 Z M 133.625 17.644531 L 135.484375 10.808594 L 138.453125 10.808594 C 139.386719 10.808594 140.003906 10.960938 140.320312 11.269531 C 140.632812 11.578125 140.695312 12.078125 140.511719 12.785156 C 140.394531 13.199219 140.222656 13.546875 139.980469 13.824219 C 139.746094 14.101562 139.429688 14.320312 139.050781 14.476562 C 139.375 14.554688 139.585938 14.710938 139.679688 14.953125 C 139.773438 15.191406 139.761719 15.535156 139.644531 15.996094 L 139.421875 16.949219 L 139.421875 16.976562 C 139.355469 17.246094 139.375 17.390625 139.480469 17.402344 L 139.414062 17.652344 L 137.40625 17.652344 C 137.410156 17.488281 137.425781 17.347656 137.4375 17.226562 C 137.453125 17.105469 137.472656 17.003906 137.488281 16.9375 L 137.675781 16.257812 C 137.769531 15.902344 137.773438 15.65625 137.683594 15.507812 C 137.597656 15.367188 137.398438 15.292969 137.085938 15.292969 L 136.242188 15.292969 L 135.585938 17.644531 Z M 146.011719 12.601562 L 144.644531 17.644531 L 142.980469 17.644531 L 143.183594 16.910156 C 142.890625 17.203125 142.589844 17.429688 142.285156 17.570312 C 141.992188 17.714844 141.667969 17.789062 141.339844 17.789062 C 141.066406 17.789062 140.828125 17.738281 140.640625 17.636719 C 140.449219 17.535156 140.308594 17.382812 140.207031 17.179688 C 140.117188 17.003906 140.085938 16.785156 140.097656 16.523438 C 140.113281 16.265625 140.199219 15.832031 140.367188 15.222656 L 141.074219 12.601562 L 142.898438 12.601562 L 142.1875 15.207031 C 142.082031 15.589844 142.058594 15.859375 142.109375 16 C 142.167969 16.144531 142.304688 16.226562 142.527344 16.226562 C 142.757812 16.226562 142.953125 16.140625 143.113281 15.96875 C 143.269531 15.792969 143.398438 15.535156 143.492188 15.195312 L 144.199219 12.597656 L 146.011719 12.597656 Z M 148.363281 13.886719 L 149.007812 13.886719 C 149.421875 13.886719 149.710938 13.835938 149.882812 13.734375 C 150.046875 13.632812 150.164062 13.445312 150.234375 13.1875 C 150.304688 12.925781 150.289062 12.742188 150.179688 12.640625 C 150.074219 12.539062 149.8125 12.492188 149.378906 12.492188 L 148.742188 12.492188 Z M 145.355469 17.644531 L 147.207031 10.808594 L 149.761719 10.808594 C 150.320312 10.808594 150.761719 10.84375 151.070312 10.917969 C 151.378906 10.992188 151.625 11.101562 151.800781 11.265625 C 152.027344 11.476562 152.167969 11.742188 152.226562 12.066406 C 152.28125 12.378906 152.25 12.75 152.132812 13.1875 C 151.925781 13.953125 151.558594 14.535156 151.042969 14.949219 C 150.519531 15.351562 149.875 15.554688 149.109375 15.554688 L 147.917969 15.554688 L 147.34375 17.644531 Z M 154.710938 15.394531 C 154.523438 15.46875 154.269531 15.550781 153.960938 15.628906 C 153.472656 15.765625 153.195312 15.941406 153.136719 16.164062 C 153.089844 16.304688 153.113281 16.414062 153.175781 16.5 C 153.242188 16.578125 153.359375 16.617188 153.527344 16.617188 C 153.828125 16.617188 154.070312 16.539062 154.25 16.386719 C 154.433594 16.230469 154.570312 15.988281 154.664062 15.652344 C 154.683594 15.578125 154.699219 15.527344 154.703125 15.488281 Z M 154.273438 17.644531 L 154.292969 17.171875 C 154 17.394531 153.703125 17.5625 153.398438 17.671875 C 153.101562 17.773438 152.78125 17.835938 152.445312 17.835938 C 151.929688 17.835938 151.570312 17.691406 151.363281 17.410156 C 151.160156 17.136719 151.125 16.738281 151.261719 16.226562 C 151.394531 15.726562 151.640625 15.351562 151.980469 15.117188 C 152.320312 14.878906 152.890625 14.703125 153.695312 14.601562 C 153.796875 14.582031 153.933594 14.570312 154.101562 14.546875 C 154.699219 14.480469 155.027344 14.320312 155.097656 14.054688 C 155.136719 13.90625 155.117188 13.800781 155.027344 13.738281 C 154.945312 13.671875 154.785156 13.636719 154.5625 13.636719 C 154.375 13.636719 154.21875 13.675781 154.09375 13.761719 C 153.964844 13.84375 153.871094 13.96875 153.8125 14.144531 L 152.039062 14.144531 C 152.199219 13.574219 152.527344 13.148438 153.019531 12.863281 C 153.507812 12.566406 154.152344 12.429688 154.957031 12.429688 C 155.332031 12.429688 155.671875 12.464844 155.96875 12.539062 C 156.265625 12.613281 156.484375 12.722656 156.625 12.851562 C 156.800781 13.011719 156.898438 13.195312 156.929688 13.398438 C 156.964844 13.601562 156.925781 13.890625 156.828125 14.269531 L 156.0625 17.078125 C 156.039062 17.171875 156.035156 17.253906 156.046875 17.328125 C 156.0625 17.402344 156.089844 17.460938 156.144531 17.503906 L 156.105469 17.640625 L 154.273438 17.640625 Z M 156.117188 19.640625 L 156.519531 18.140625 L 157.042969 18.140625 C 157.21875 18.140625 157.351562 18.105469 157.449219 18.039062 C 157.546875 17.972656 157.613281 17.863281 157.652344 17.707031 C 157.675781 17.640625 157.6875 17.574219 157.695312 17.496094 C 157.695312 17.410156 157.695312 17.320312 157.695312 17.21875 L 157.410156 12.597656 L 159.257812 12.597656 L 159.230469 15.65625 L 160.835938 12.597656 L 162.546875 12.597656 L 159.699219 17.617188 C 159.375 18.179688 159.144531 18.566406 158.996094 18.777344 C 158.847656 18.984375 158.710938 19.148438 158.574219 19.253906 C 158.398438 19.40625 158.203125 19.511719 157.988281 19.574219 C 157.777344 19.640625 157.457031 19.671875 157.019531 19.671875 C 156.894531 19.671875 156.75 19.671875 156.597656 19.660156 C 156.449219 19.660156 156.28125 19.648438 156.117188 19.640625 " fill-opacity="1" fill-rule="nonzero"/></g><path fill="#2566af" d="M 189.121094 20.511719 L 186.386719 20.511719 L 188.097656 9.882812 L 190.824219 9.882812 Z M 184.089844 9.882812 L 181.484375 17.195312 L 181.179688 15.621094 L 180.261719 10.839844 C 180.261719 10.839844 180.152344 9.882812 178.964844 9.882812 L 174.664062 9.882812 L 174.609375 10.0625 C 174.609375 10.0625 175.929688 10.339844 177.46875 11.277344 L 179.839844 20.511719 L 182.6875 20.511719 L 187.03125 9.882812 Z M 205.570312 20.511719 L 208.078125 20.511719 L 205.890625 9.882812 L 203.695312 9.882812 C 202.679688 9.882812 202.433594 10.671875 202.433594 10.671875 L 198.363281 20.511719 L 201.207031 20.511719 L 201.777344 18.9375 L 205.246094 18.9375 Z M 202.5625 16.753906 L 204 12.773438 L 204.804688 16.753906 Z M 198.574219 12.4375 L 198.964844 10.15625 C 198.964844 10.15625 197.761719 9.695312 196.507812 9.695312 C 195.152344 9.695312 191.933594 10.292969 191.933594 13.210938 C 191.933594 15.960938 195.710938 15.992188 195.710938 17.4375 C 195.710938 18.875 192.324219 18.621094 191.207031 17.707031 L 190.800781 20.097656 C 190.800781 20.097656 192.023438 20.699219 193.882812 20.699219 C 195.746094 20.699219 198.558594 19.71875 198.558594 17.058594 C 198.558594 14.292969 194.746094 14.035156 194.746094 12.835938 C 194.746094 11.632812 197.40625 11.785156 198.574219 12.4375 Z M 198.574219 12.4375 " fill-opacity="1" fill-rule="nonzero"/><path fill="#e6a540" d="M 181.179688 15.621094 L 180.261719 10.839844 C 180.261719 10.839844 180.152344 9.882812 178.964844 9.882812 L 174.664062 9.882812 L 174.609375 10.0625 C 174.609375 10.0625 176.679688 10.5 178.664062 12.125 C 180.5625 13.679688 181.179688 15.621094 181.179688 15.621094 Z M 181.179688 15.621094 " fill-opacity="1" fill-rule="nonzero"/><g clip-path="url(#4fc73bb414)"><path fill="#231f20" d="M 244.824219 24.816406 L 244.824219 24.871094 L 244.867188 24.871094 C 244.878906 24.871094 244.886719 24.867188 244.890625 24.863281 C 244.898438 24.859375 244.902344 24.851562 244.902344 24.84375 C 244.902344 24.835938 244.898438 24.828125 244.890625 24.824219 C 244.886719 24.820312 244.878906 24.816406 244.867188 24.816406 Z M 244.867188 24.78125 C 244.886719 24.78125 244.910156 24.785156 244.921875 24.800781 C 244.9375 24.808594 244.945312 24.824219 244.945312 24.84375 C 244.945312 24.859375 244.941406 24.875 244.929688 24.882812 C 244.917969 24.894531 244.902344 24.902344 244.886719 24.902344 L 244.949219 24.976562 L 244.898438 24.976562 L 244.839844 24.902344 L 244.824219 24.902344 L 244.824219 24.976562 L 244.78125 24.976562 L 244.78125 24.78125 Z M 244.859375 25.042969 C 244.878906 25.042969 244.898438 25.039062 244.917969 25.027344 C 244.9375 25.019531 244.953125 25.007812 244.96875 24.992188 C 244.980469 24.976562 244.992188 24.960938 245.003906 24.941406 C 245.019531 24.902344 245.019531 24.859375 245.003906 24.816406 C 244.992188 24.796875 244.980469 24.78125 244.96875 24.765625 C 244.953125 24.75 244.9375 24.742188 244.917969 24.730469 C 244.898438 24.722656 244.878906 24.71875 244.859375 24.71875 C 244.832031 24.71875 244.8125 24.722656 244.796875 24.730469 C 244.773438 24.742188 244.757812 24.75 244.742188 24.765625 C 244.691406 24.816406 244.683594 24.875 244.710938 24.941406 C 244.714844 24.964844 244.730469 24.980469 244.742188 24.996094 C 244.757812 25.007812 244.773438 25.019531 244.796875 25.03125 C 244.8125 25.039062 244.832031 25.042969 244.859375 25.042969 M 244.859375 24.675781 C 244.914062 24.675781 244.960938 24.695312 245.003906 24.734375 C 245.023438 24.753906 245.035156 24.773438 245.046875 24.800781 C 245.066406 24.855469 245.066406 24.910156 245.046875 24.960938 C 245.035156 24.984375 245.023438 25.007812 245.003906 25.027344 C 244.980469 25.046875 244.960938 25.0625 244.9375 25.074219 C 244.914062 25.082031 244.886719 25.089844 244.859375 25.089844 C 244.828125 25.089844 244.800781 25.082031 244.773438 25.074219 C 244.75 25.0625 244.726562 25.046875 244.710938 25.027344 C 244.6875 25.007812 244.675781 24.984375 244.664062 24.960938 C 244.644531 24.90625 244.644531 24.851562 244.664062 24.800781 C 244.675781 24.773438 244.6875 24.75 244.710938 24.734375 C 244.726562 24.710938 244.75 24.699219 244.773438 24.6875 C 244.800781 24.675781 244.828125 24.671875 244.859375 24.671875 M 225.765625 23.929688 C 225.765625 23.5625 226 23.261719 226.382812 23.261719 C 226.753906 23.261719 227 23.546875 227 23.929688 C 227 24.308594 226.753906 24.597656 226.382812 24.597656 C 226 24.597656 225.765625 24.296875 225.765625 23.929688 M 227.421875 23.929688 L 227.421875 22.882812 L 226.976562 22.882812 L 226.976562 23.140625 C 226.835938 22.949219 226.621094 22.832031 226.328125 22.832031 C 225.757812 22.832031 225.308594 23.292969 225.308594 23.929688 C 225.308594 24.570312 225.757812 25.027344 226.328125 25.027344 C 226.621094 25.027344 226.835938 24.910156 226.976562 24.71875 L 226.976562 24.976562 L 227.421875 24.976562 Z M 242.457031 23.929688 C 242.457031 23.5625 242.695312 23.261719 243.078125 23.261719 C 243.445312 23.261719 243.695312 23.546875 243.695312 23.929688 C 243.695312 24.308594 243.445312 24.597656 243.078125 24.597656 C 242.695312 24.597656 242.457031 24.296875 242.457031 23.929688 M 244.117188 23.929688 L 244.117188 22.042969 L 243.671875 22.042969 L 243.671875 23.140625 C 243.53125 22.949219 243.316406 22.832031 243.023438 22.832031 C 242.449219 22.832031 241.996094 23.292969 241.996094 23.929688 C 241.996094 24.570312 242.449219 25.027344 243.023438 25.027344 C 243.316406 25.027344 243.53125 24.910156 243.671875 24.71875 L 243.671875 24.976562 L 244.117188 24.976562 Z M 232.945312 23.242188 C 233.230469 23.242188 233.414062 23.421875 233.464844 23.742188 L 232.402344 23.742188 C 232.449219 23.441406 232.628906 23.242188 232.945312 23.242188 M 232.953125 22.832031 C 232.355469 22.832031 231.933594 23.273438 231.933594 23.929688 C 231.933594 24.59375 232.371094 25.027344 232.984375 25.027344 C 233.289062 25.027344 233.574219 24.945312 233.820312 24.734375 L 233.605469 24.398438 C 233.433594 24.539062 233.214844 24.613281 233.007812 24.613281 C 232.722656 24.613281 232.460938 24.476562 232.398438 24.105469 L 233.914062 24.105469 C 233.921875 24.046875 233.925781 23.988281 233.925781 23.929688 C 233.921875 23.273438 233.523438 22.832031 232.953125 22.832031 M 238.328125 23.929688 C 238.328125 23.5625 238.5625 23.257812 238.949219 23.257812 C 239.3125 23.257812 239.5625 23.546875 239.5625 23.929688 C 239.5625 24.308594 239.3125 24.597656 238.949219 24.597656 C 238.5625 24.597656 238.328125 24.296875 238.328125 23.929688 M 239.984375 23.929688 L 239.984375 22.882812 L 239.539062 22.882812 L 239.539062 23.140625 C 239.398438 22.949219 239.183594 22.832031 238.894531 22.832031 C 238.316406 22.832031 237.867188 23.292969 237.867188 23.929688 C 237.867188 24.570312 238.316406 25.027344 238.894531 25.027344 C 239.183594 25.027344 239.398438 24.910156 239.539062 24.71875 L 239.539062 24.976562 L 239.984375 24.976562 Z M 235.8125 23.929688 C 235.8125 24.5625 236.242188 25.027344 236.90625 25.027344 C 237.214844 25.027344 237.421875 24.957031 237.640625 24.773438 L 237.425781 24.410156 C 237.261719 24.53125 237.085938 24.597656 236.890625 24.597656 C 236.535156 24.59375 236.273438 24.332031 236.273438 23.929688 C 236.273438 23.527344 236.535156 23.265625 236.890625 23.257812 C 237.085938 23.257812 237.257812 23.324219 237.425781 23.445312 L 237.640625 23.078125 C 237.417969 22.902344 237.214844 22.832031 236.90625 22.832031 C 236.242188 22.832031 235.8125 23.292969 235.8125 23.929688 M 241.550781 22.832031 C 241.292969 22.832031 241.125 22.953125 241.011719 23.140625 L 241.011719 22.882812 L 240.570312 22.882812 L 240.570312 24.976562 L 241.015625 24.976562 L 241.015625 23.804688 C 241.015625 23.457031 241.160156 23.265625 241.453125 23.265625 C 241.546875 23.261719 241.640625 23.277344 241.730469 23.316406 L 241.867188 22.886719 C 241.765625 22.847656 241.640625 22.832031 241.550781 22.832031 M 229.625 23.050781 C 229.40625 22.90625 229.113281 22.832031 228.789062 22.832031 C 228.269531 22.832031 227.9375 23.085938 227.9375 23.5 C 227.9375 23.839844 228.183594 24.050781 228.640625 24.117188 L 228.851562 24.144531 C 229.097656 24.179688 229.210938 24.246094 229.210938 24.367188 C 229.210938 24.527344 229.046875 24.621094 228.742188 24.621094 C 228.4375 24.621094 228.210938 24.519531 228.0625 24.402344 L 227.855469 24.753906 C 228.097656 24.941406 228.40625 25.027344 228.742188 25.027344 C 229.332031 25.027344 229.675781 24.742188 229.675781 24.34375 C 229.675781 23.976562 229.402344 23.785156 228.957031 23.71875 L 228.75 23.6875 C 228.558594 23.664062 228.402344 23.625 228.402344 23.484375 C 228.402344 23.332031 228.546875 23.242188 228.792969 23.242188 C 229.054688 23.242188 229.304688 23.339844 229.429688 23.417969 Z M 235.363281 22.832031 C 235.105469 22.832031 234.941406 22.953125 234.824219 23.140625 L 234.824219 22.882812 L 234.382812 22.882812 L 234.382812 24.976562 L 234.828125 24.976562 L 234.828125 23.804688 C 234.828125 23.457031 234.972656 23.265625 235.265625 23.265625 C 235.359375 23.261719 235.453125 23.277344 235.542969 23.316406 L 235.679688 22.886719 C 235.582031 22.847656 235.453125 22.832031 235.363281 22.832031 M 231.566406 22.882812 L 230.839844 22.882812 L 230.839844 22.25 L 230.390625 22.25 L 230.390625 22.882812 L 229.976562 22.882812 L 229.976562 23.300781 L 230.390625 23.300781 L 230.390625 24.25 C 230.390625 24.738281 230.574219 25.027344 231.101562 25.027344 C 231.292969 25.027344 231.515625 24.964844 231.65625 24.863281 L 231.527344 24.476562 C 231.394531 24.554688 231.25 24.59375 231.132812 24.59375 C 230.910156 24.59375 230.839844 24.453125 230.839844 24.242188 L 230.839844 23.300781 L 231.566406 23.300781 Z M 224.914062 24.976562 L 224.914062 23.664062 C 224.914062 23.171875 224.605469 22.839844 224.109375 22.832031 C 223.847656 22.828125 223.578125 22.910156 223.390625 23.207031 C 223.25 22.972656 223.023438 22.832031 222.714844 22.832031 C 222.492188 22.832031 222.277344 22.898438 222.113281 23.140625 L 222.113281 22.882812 L 221.667969 22.882812 L 221.667969 24.976562 L 222.117188 24.976562 L 222.117188 23.8125 C 222.117188 23.453125 222.3125 23.257812 222.617188 23.257812 C 222.914062 23.257812 223.0625 23.457031 223.0625 23.808594 L 223.0625 24.976562 L 223.515625 24.976562 L 223.515625 23.8125 C 223.515625 23.453125 223.71875 23.257812 224.015625 23.257812 C 224.316406 23.257812 224.460938 23.457031 224.460938 23.808594 L 224.460938 24.976562 Z M 224.914062 24.976562 " fill-opacity="1" fill-rule="nonzero"/></g><g clip-path="url(#77f8e57fa1)"><path fill="#f79410" d="M 245.074219 18.023438 L 245.074219 17.71875 L 245 17.71875 L 244.90625 17.929688 L 244.816406 17.71875 L 244.742188 17.71875 L 244.742188 18.023438 L 244.796875 18.023438 L 244.796875 17.792969 L 244.878906 17.992188 L 244.9375 17.992188 L 245.019531 17.792969 L 245.019531 18.023438 Z M 244.582031 18.023438 L 244.582031 17.769531 L 244.683594 17.769531 L 244.683594 17.71875 L 244.425781 17.71875 L 244.425781 17.769531 L 244.527344 17.769531 L 244.527344 18.023438 Z M 244.582031 18.023438 " fill-opacity="1" fill-rule="nonzero"/></g><path fill="#ff5f00" d="M 229.476562 6.960938 L 236.21875 6.960938 L 236.21875 19.335938 L 229.476562 19.335938 Z M 229.476562 6.960938 " fill-opacity="1" fill-rule="nonzero"/><g clip-path="url(#50762cbb35)"><path fill="#eb001b" d="M 229.902344 13.144531 C 229.902344 10.632812 231.054688 8.398438 232.84375 6.960938 C 231.449219 5.832031 229.863281 5.273438 228.085938 5.277344 C 223.828125 5.277344 220.378906 8.800781 220.378906 13.144531 C 220.378906 17.492188 223.828125 21.015625 228.085938 21.015625 C 229.863281 21.019531 231.449219 20.457031 232.84375 19.335938 C 231.054688 17.894531 229.902344 15.65625 229.902344 13.144531 " fill-opacity="1" fill-rule="nonzero"/></g><g clip-path="url(#147963d9cd)"><path fill="#f79e1b" d="M 245.316406 13.144531 C 245.316406 17.492188 241.867188 21.015625 237.609375 21.015625 C 235.828125 21.019531 234.242188 20.457031 232.84375 19.335938 C 234.640625 17.894531 235.792969 15.65625 235.792969 13.144531 C 235.792969 10.632812 234.640625 8.398438 232.84375 6.960938 C 234.242188 5.832031 235.828125 5.273438 237.609375 5.277344 C 241.867188 5.277344 245.316406 8.800781 245.316406 13.144531 " fill-opacity="1" fill-rule="nonzero"/></g><g clip-path="url(#73d3107248)"><path fill="#d8d8d8" d="M 256.640625 2.570312 L 291.835938 2.570312 C 292.175781 2.570312 292.496094 2.707031 292.734375 2.949219 C 292.972656 3.191406 293.109375 3.519531 293.109375 3.859375 L 293.109375 25.199219 C 293.109375 25.539062 292.972656 25.867188 292.734375 26.109375 C 292.496094 26.34375 292.175781 26.480469 291.835938 26.480469 L 256.640625 26.480469 C 256.304688 26.480469 255.980469 26.34375 255.742188 26.109375 C 255.503906 25.867188 255.367188 25.539062 255.367188 25.199219 L 255.367188 3.859375 C 255.367188 3.519531 255.503906 3.191406 255.742188 2.949219 C 255.980469 2.707031 256.304688 2.570312 256.640625 2.570312 " fill-opacity="1" fill-rule="nonzero"/></g><g clip-path="url(#44ae11f489)"><path fill="#000000" d="M 263.519531 8.546875 C 259.796875 8.304688 256.714844 11.433594 256.953125 15.203125 C 257.152344 18.324219 259.636719 20.84375 262.714844 21.042969 C 266.4375 21.285156 269.519531 18.160156 269.28125 14.386719 C 269.085938 11.265625 266.597656 8.746094 263.519531 8.546875 Z M 265.914062 17.902344 C 266.15625 17.054688 266.300781 16.082031 266.320312 15.035156 L 268.8125 15.035156 C 268.757812 16.378906 268.25 17.605469 267.441406 18.558594 C 267.066406 18.292969 266.550781 18.070312 265.914062 17.902344 Z M 258.792969 18.558594 C 257.984375 17.605469 257.476562 16.378906 257.421875 15.035156 L 259.914062 15.035156 C 259.933594 16.082031 260.078125 17.054688 260.324219 17.902344 C 259.6875 18.070312 259.167969 18.292969 258.792969 18.558594 Z M 260.320312 11.695312 C 260.078125 12.535156 259.933594 13.507812 259.914062 14.554688 L 257.421875 14.554688 C 257.476562 13.21875 257.980469 12 258.785156 11.046875 C 259.164062 11.304688 259.683594 11.527344 260.320312 11.695312 Z M 262.878906 14.554688 L 260.386719 14.554688 C 260.410156 13.558594 260.554688 12.617188 260.796875 11.800781 C 261.4375 11.933594 262.148438 12.007812 262.878906 12.023438 Z M 262.878906 15.035156 L 262.878906 17.570312 C 262.148438 17.582031 261.433594 17.65625 260.796875 17.789062 C 260.558594 16.972656 260.410156 16.035156 260.386719 15.035156 Z M 263.355469 15.035156 L 265.84375 15.035156 C 265.824219 16.035156 265.679688 16.972656 265.441406 17.789062 C 264.800781 17.65625 264.089844 17.582031 263.355469 17.570312 Z M 263.355469 14.554688 L 263.355469 12.023438 C 264.085938 12.007812 264.800781 11.933594 265.441406 11.800781 C 265.679688 12.617188 265.824219 13.558594 265.84375 14.554688 Z M 263.355469 11.539062 L 263.355469 9.039062 C 264.132812 9.191406 264.835938 10.066406 265.289062 11.34375 C 264.695312 11.460938 264.035156 11.53125 263.355469 11.539062 Z M 262.878906 9.039062 L 262.878906 11.539062 C 262.203125 11.53125 261.539062 11.460938 260.945312 11.34375 C 261.402344 10.066406 262.097656 9.191406 262.878906 9.039062 Z M 262.878906 18.050781 L 262.878906 20.550781 C 262.097656 20.402344 261.402344 19.523438 260.945312 18.25 C 261.539062 18.132812 262.199219 18.0625 262.878906 18.050781 Z M 263.355469 20.550781 L 263.355469 18.050781 C 264.035156 18.0625 264.695312 18.132812 265.289062 18.25 C 264.832031 19.523438 264.132812 20.402344 263.355469 20.550781 Z M 266.320312 14.554688 C 266.300781 13.507812 266.160156 12.535156 265.914062 11.695312 C 266.550781 11.527344 267.074219 11.304688 267.453125 11.046875 C 268.257812 12 268.761719 13.21875 268.8125 14.554688 Z M 267.121094 10.6875 C 266.789062 10.898438 266.324219 11.089844 265.769531 11.234375 C 265.472656 10.378906 265.070312 9.683594 264.589844 9.210938 C 265.558594 9.476562 266.429688 9.992188 267.121094 10.6875 Z M 260.464844 11.234375 C 259.910156 11.089844 259.445312 10.898438 259.113281 10.6875 C 259.804688 9.992188 260.675781 9.476562 261.644531 9.210938 C 261.167969 9.683594 260.765625 10.378906 260.464844 11.234375 Z M 259.125 18.914062 C 259.449219 18.699219 259.914062 18.507812 260.46875 18.363281 C 260.765625 19.214844 261.167969 19.90625 261.644531 20.375 C 260.679688 20.117188 259.816406 19.605469 259.125 18.914062 Z M 265.769531 18.363281 C 266.324219 18.507812 266.789062 18.699219 267.113281 18.914062 C 266.417969 19.605469 265.554688 20.117188 264.589844 20.375 C 265.066406 19.90625 265.46875 19.214844 265.769531 18.363281 Z M 265.769531 18.363281 " fill-opacity="1" fill-rule="nonzero"/></g><path fill="#000000" d="M 270.53125 12.621094 L 270.53125 12.257812 L 271.136719 12.257812 L 271.136719 9.195312 L 270.53125 9.195312 L 270.53125 8.832031 L 272.296875 8.832031 L 272.296875 9.195312 L 271.730469 9.195312 L 271.730469 12.257812 L 272.296875 12.257812 L 272.296875 12.621094 Z M 270.53125 12.621094 " fill-opacity="1" fill-rule="nonzero"/><path fill="#000000" d="M 272.496094 12.34375 L 272.980469 12.34375 L 272.980469 10.203125 L 272.496094 10.203125 L 272.496094 9.921875 L 273.433594 9.878906 L 273.503906 10.425781 C 273.546875 10.308594 273.617188 10.203125 273.710938 10.117188 C 273.808594 10.027344 273.917969 9.957031 274.027344 9.910156 C 274.144531 9.863281 274.265625 9.839844 274.386719 9.839844 C 274.441406 9.839844 274.484375 9.84375 274.523438 9.851562 C 274.570312 9.863281 274.621094 9.875 274.675781 9.878906 C 274.738281 9.902344 274.792969 9.921875 274.839844 9.949219 C 274.886719 9.976562 274.929688 10.019531 274.980469 10.078125 C 275.023438 10.125 275.0625 10.179688 275.089844 10.246094 C 275.125 10.3125 275.152344 10.394531 275.171875 10.496094 C 275.199219 10.589844 275.214844 10.703125 275.214844 10.832031 L 275.214844 12.34375 L 275.726562 12.34375 L 275.726562 12.621094 L 274.21875 12.621094 L 274.21875 12.34375 L 274.675781 12.34375 L 274.675781 10.832031 C 274.675781 10.617188 274.632812 10.460938 274.550781 10.355469 C 274.46875 10.246094 274.347656 10.1875 274.191406 10.1875 C 274.101562 10.1875 274.011719 10.210938 273.929688 10.246094 C 273.855469 10.28125 273.792969 10.328125 273.738281 10.382812 C 273.6875 10.449219 273.648438 10.523438 273.613281 10.609375 C 273.574219 10.691406 273.550781 10.777344 273.542969 10.859375 C 273.523438 10.945312 273.515625 11.039062 273.515625 11.140625 L 273.515625 12.34375 L 273.957031 12.34375 L 273.957031 12.621094 L 272.496094 12.621094 Z M 272.496094 12.34375 " fill-opacity="1" fill-rule="nonzero"/><path fill="#000000" d="M 277.015625 12.691406 C 276.796875 12.691406 276.609375 12.625 276.464844 12.496094 C 276.382812 12.433594 276.316406 12.347656 276.269531 12.246094 C 276.222656 12.132812 276.203125 12.011719 276.203125 11.878906 L 276.203125 10.203125 L 275.691406 10.203125 L 275.691406 10.078125 C 275.820312 10.042969 275.933594 9.976562 276.035156 9.878906 C 276.136719 9.789062 276.222656 9.675781 276.296875 9.542969 C 276.355469 9.433594 276.410156 9.320312 276.464844 9.210938 C 276.519531 9.070312 276.5625 8.980469 276.589844 8.945312 C 276.617188 8.871094 276.644531 8.832031 276.671875 8.832031 C 276.6875 8.832031 276.703125 8.84375 276.710938 8.859375 C 276.730469 8.871094 276.742188 8.886719 276.742188 8.914062 L 276.742188 9.921875 L 277.71875 9.921875 L 277.71875 10.203125 L 276.742188 10.203125 L 276.742188 11.894531 C 276.742188 12.035156 276.769531 12.144531 276.835938 12.230469 C 276.898438 12.308594 276.988281 12.34375 277.097656 12.34375 C 277.238281 12.34375 277.335938 12.296875 277.402344 12.203125 C 277.464844 12.113281 277.5 11.957031 277.5 11.742188 L 277.5 11.378906 L 277.804688 11.378906 L 277.804688 11.683594 C 277.804688 11.917969 277.773438 12.113281 277.71875 12.257812 C 277.671875 12.398438 277.589844 12.507812 277.472656 12.578125 C 277.363281 12.652344 277.210938 12.691406 277.015625 12.691406 Z M 277.015625 12.691406 " fill-opacity="1" fill-rule="nonzero"/><path fill="#000000" d="M 279.4375 12.691406 C 279.246094 12.691406 279.058594 12.652344 278.886719 12.578125 C 278.722656 12.496094 278.582031 12.390625 278.472656 12.257812 C 278.367188 12.128906 278.285156 11.984375 278.222656 11.824219 C 278.167969 11.65625 278.140625 11.484375 278.140625 11.308594 C 278.140625 11.148438 278.160156 11 278.195312 10.859375 C 278.230469 10.71875 278.285156 10.589844 278.363281 10.46875 C 278.507812 10.199219 278.710938 10.015625 278.96875 9.921875 C 279.105469 9.867188 279.253906 9.839844 279.410156 9.839844 C 279.582031 9.839844 279.742188 9.875 279.878906 9.9375 C 280.023438 9.992188 280.15625 10.082031 280.265625 10.203125 C 280.375 10.3125 280.460938 10.460938 280.527344 10.636719 C 280.589844 10.8125 280.628906 11.011719 280.640625 11.238281 L 278.722656 11.238281 L 278.722656 11.25 C 278.722656 11.550781 278.78125 11.796875 278.898438 11.992188 C 278.960938 12.097656 279.046875 12.175781 279.148438 12.230469 C 279.25 12.285156 279.363281 12.3125 279.492188 12.3125 C 279.609375 12.3125 279.722656 12.292969 279.824219 12.246094 C 279.933594 12.1875 280.03125 12.113281 280.113281 12.019531 C 280.195312 11.929688 280.253906 11.816406 280.292969 11.683594 L 280.582031 11.78125 C 280.535156 11.972656 280.460938 12.132812 280.347656 12.273438 C 280.246094 12.40625 280.117188 12.507812 279.960938 12.578125 C 279.804688 12.652344 279.632812 12.691406 279.4375 12.691406 Z M 280.085938 10.957031 C 280.085938 10.800781 280.050781 10.660156 279.988281 10.539062 C 279.933594 10.417969 279.855469 10.324219 279.753906 10.257812 C 279.652344 10.183594 279.542969 10.144531 279.425781 10.144531 C 279.304688 10.144531 279.191406 10.183594 279.09375 10.257812 C 278.988281 10.324219 278.90625 10.417969 278.84375 10.539062 C 278.78125 10.660156 278.742188 10.800781 278.734375 10.957031 Z M 280.085938 10.957031 " fill-opacity="1" fill-rule="nonzero"/><path fill="#000000" d="M 280.941406 12.34375 L 281.425781 12.34375 L 281.425781 10.203125 L 280.941406 10.203125 L 280.941406 9.921875 L 281.878906 9.878906 L 281.949219 10.46875 C 281.984375 10.320312 282.058594 10.183594 282.171875 10.0625 C 282.230469 10 282.308594 9.945312 282.390625 9.910156 C 282.472656 9.863281 282.5625 9.839844 282.667969 9.839844 C 282.757812 9.839844 282.839844 9.859375 282.914062 9.894531 C 282.988281 9.933594 283.046875 9.984375 283.09375 10.046875 C 283.140625 10.113281 283.164062 10.1875 283.164062 10.273438 C 283.164062 10.355469 283.144531 10.433594 283.109375 10.496094 C 283.070312 10.5625 283.027344 10.613281 282.96875 10.648438 C 282.914062 10.679688 282.851562 10.691406 282.777344 10.691406 C 282.671875 10.691406 282.585938 10.664062 282.515625 10.609375 C 282.449219 10.542969 282.417969 10.460938 282.417969 10.355469 C 282.417969 10.328125 282.425781 10.296875 282.445312 10.257812 C 282.464844 10.222656 282.480469 10.1875 282.5 10.160156 L 282.527344 10.132812 C 282.425781 10.132812 282.339844 10.167969 282.265625 10.230469 C 282.191406 10.285156 282.132812 10.371094 282.085938 10.480469 C 282.003906 10.6875 281.964844 10.914062 281.964844 11.167969 L 281.964844 12.34375 L 282.515625 12.34375 L 282.515625 12.621094 L 280.941406 12.621094 Z M 280.941406 12.34375 " fill-opacity="1" fill-rule="nonzero"/><path fill="#000000" d="M 283.308594 12.34375 L 283.792969 12.34375 L 283.792969 10.203125 L 283.308594 10.203125 L 283.308594 9.921875 L 284.25 9.878906 L 284.316406 10.425781 C 284.363281 10.308594 284.433594 10.203125 284.523438 10.117188 C 284.625 10.027344 284.730469 9.957031 284.84375 9.910156 C 284.960938 9.863281 285.082031 9.839844 285.199219 9.839844 C 285.257812 9.839844 285.300781 9.84375 285.339844 9.851562 C 285.382812 9.863281 285.4375 9.875 285.492188 9.878906 C 285.554688 9.902344 285.609375 9.921875 285.65625 9.949219 C 285.703125 9.976562 285.746094 10.019531 285.792969 10.078125 C 285.839844 10.125 285.878906 10.179688 285.90625 10.246094 C 285.9375 10.3125 285.96875 10.394531 285.988281 10.496094 C 286.015625 10.589844 286.027344 10.703125 286.027344 10.832031 L 286.027344 12.34375 L 286.539062 12.34375 L 286.539062 12.621094 L 285.035156 12.621094 L 285.035156 12.34375 L 285.492188 12.34375 L 285.492188 10.832031 C 285.492188 10.617188 285.449219 10.460938 285.367188 10.355469 C 285.285156 10.246094 285.164062 10.1875 285.007812 10.1875 C 284.914062 10.1875 284.828125 10.210938 284.746094 10.246094 C 284.667969 10.28125 284.609375 10.328125 284.550781 10.382812 C 284.503906 10.449219 284.460938 10.523438 284.429688 10.609375 C 284.390625 10.691406 284.367188 10.777344 284.359375 10.859375 C 284.339844 10.945312 284.332031 11.039062 284.332031 11.140625 L 284.332031 12.34375 L 284.773438 12.34375 L 284.773438 12.621094 L 283.308594 12.621094 Z M 283.308594 12.34375 " fill-opacity="1" fill-rule="nonzero"/><path fill="#000000" d="M 288.039062 12.691406 C 287.847656 12.691406 287.660156 12.652344 287.488281 12.578125 C 287.320312 12.496094 287.183594 12.390625 287.074219 12.257812 C 286.96875 12.128906 286.886719 11.984375 286.824219 11.824219 C 286.769531 11.65625 286.742188 11.484375 286.742188 11.308594 C 286.742188 11.148438 286.757812 11 286.796875 10.859375 C 286.832031 10.71875 286.886719 10.589844 286.960938 10.46875 C 287.109375 10.199219 287.3125 10.015625 287.570312 9.921875 C 287.707031 9.867188 287.851562 9.839844 288.011719 9.839844 C 288.183594 9.839844 288.34375 9.875 288.480469 9.9375 C 288.625 9.992188 288.757812 10.082031 288.867188 10.203125 C 288.976562 10.3125 289.0625 10.460938 289.128906 10.636719 C 289.191406 10.8125 289.230469 11.011719 289.238281 11.238281 L 287.320312 11.238281 L 287.320312 11.25 C 287.320312 11.550781 287.378906 11.796875 287.5 11.992188 C 287.5625 12.097656 287.644531 12.175781 287.75 12.230469 C 287.847656 12.285156 287.964844 12.3125 288.09375 12.3125 C 288.210938 12.3125 288.320312 12.292969 288.425781 12.246094 C 288.535156 12.1875 288.632812 12.113281 288.714844 12.019531 C 288.796875 11.929688 288.855469 11.816406 288.894531 11.683594 L 289.183594 11.78125 C 289.136719 11.972656 289.058594 12.132812 288.949219 12.273438 C 288.847656 12.40625 288.71875 12.507812 288.5625 12.578125 C 288.40625 12.652344 288.230469 12.691406 288.039062 12.691406 Z M 288.6875 10.957031 C 288.6875 10.800781 288.652344 10.660156 288.589844 10.539062 C 288.535156 10.417969 288.457031 10.324219 288.355469 10.257812 C 288.253906 10.183594 288.140625 10.144531 288.023438 10.144531 C 287.90625 10.144531 287.792969 10.183594 287.695312 10.257812 C 287.589844 10.324219 287.507812 10.417969 287.445312 10.539062 C 287.378906 10.660156 287.34375 10.800781 287.335938 10.957031 Z M 288.6875 10.957031 " fill-opacity="1" fill-rule="nonzero"/><path fill="#000000" d="M 290.6875 12.691406 C 290.464844 12.691406 290.28125 12.625 290.136719 12.496094 C 290.050781 12.433594 289.988281 12.347656 289.941406 12.246094 C 289.894531 12.132812 289.875 12.011719 289.875 11.878906 L 289.875 10.203125 L 289.363281 10.203125 L 289.363281 10.078125 C 289.488281 10.042969 289.605469 9.976562 289.707031 9.878906 C 289.808594 9.789062 289.894531 9.675781 289.96875 9.542969 C 290.023438 9.433594 290.078125 9.320312 290.136719 9.210938 C 290.191406 9.070312 290.230469 8.980469 290.257812 8.945312 C 290.285156 8.871094 290.316406 8.832031 290.34375 8.832031 C 290.359375 8.832031 290.375 8.84375 290.382812 8.859375 C 290.402344 8.871094 290.410156 8.886719 290.410156 8.914062 L 290.410156 9.921875 L 291.390625 9.921875 L 291.390625 10.203125 L 290.410156 10.203125 L 290.410156 11.894531 C 290.410156 12.035156 290.441406 12.144531 290.507812 12.230469 C 290.570312 12.308594 290.660156 12.34375 290.769531 12.34375 C 290.90625 12.34375 291.007812 12.296875 291.074219 12.203125 C 291.136719 12.113281 291.171875 11.957031 291.171875 11.742188 L 291.171875 11.378906 L 291.472656 11.378906 L 291.472656 11.683594 C 291.472656 11.917969 291.445312 12.113281 291.390625 12.257812 C 291.34375 12.398438 291.261719 12.507812 291.140625 12.578125 C 291.03125 12.652344 290.878906 12.691406 290.6875 12.691406 Z M 290.6875 12.691406 " fill-opacity="1" fill-rule="nonzero"/><path fill="#000000" d="M 270.457031 19.132812 L 271.066406 19.132812 L 271.066406 16.070312 L 270.457031 16.070312 L 270.457031 15.707031 L 272.085938 15.707031 C 272.308594 15.707031 272.527344 15.730469 272.75 15.777344 C 272.96875 15.8125 273.167969 15.902344 273.34375 16.042969 C 273.414062 16.109375 273.472656 16.191406 273.523438 16.292969 C 273.566406 16.398438 273.589844 16.511719 273.589844 16.644531 C 273.589844 16.859375 273.527344 17.03125 273.410156 17.160156 C 273.300781 17.292969 273.128906 17.390625 272.902344 17.453125 C 273.195312 17.53125 273.414062 17.648438 273.5625 17.816406 C 273.71875 17.984375 273.796875 18.203125 273.796875 18.460938 C 273.796875 18.59375 273.773438 18.710938 273.730469 18.824219 C 273.691406 18.929688 273.640625 19.015625 273.578125 19.089844 C 273.511719 19.15625 273.429688 19.214844 273.328125 19.273438 C 273.234375 19.328125 273.140625 19.371094 273.050781 19.398438 C 272.960938 19.425781 272.851562 19.449219 272.734375 19.46875 C 272.613281 19.476562 272.503906 19.488281 272.402344 19.496094 C 272.292969 19.496094 272.191406 19.496094 272.101562 19.496094 L 270.457031 19.496094 Z M 272.195312 17.328125 C 272.40625 17.328125 272.601562 17.28125 272.777344 17.1875 C 272.859375 17.144531 272.921875 17.082031 272.96875 17.007812 C 273.023438 16.921875 273.050781 16.832031 273.050781 16.726562 C 273.050781 16.570312 273.015625 16.441406 272.941406 16.335938 C 272.886719 16.25 272.785156 16.1875 272.636719 16.140625 C 272.535156 16.105469 272.375 16.078125 272.15625 16.070312 C 272.046875 16.070312 271.941406 16.070312 271.851562 16.070312 L 271.660156 16.070312 L 271.660156 17.328125 Z M 271.949219 19.132812 C 272.167969 19.132812 272.351562 19.128906 272.5 19.117188 C 272.582031 19.109375 272.652344 19.097656 272.707031 19.078125 C 272.769531 19.058594 272.832031 19.042969 272.886719 19.019531 C 272.941406 18.992188 272.988281 18.964844 273.023438 18.9375 C 273.058594 18.902344 273.09375 18.859375 273.121094 18.8125 C 273.175781 18.726562 273.203125 18.601562 273.203125 18.433594 C 273.203125 18.3125 273.175781 18.203125 273.121094 18.097656 C 273.066406 17.996094 272.988281 17.910156 272.886719 17.84375 C 272.792969 17.78125 272.6875 17.734375 272.570312 17.707031 C 272.449219 17.675781 272.324219 17.664062 272.195312 17.664062 L 271.660156 17.664062 L 271.660156 19.132812 Z M 271.949219 19.132812 " fill-opacity="1" fill-rule="nonzero"/><path fill="#000000" d="M 274.847656 19.566406 C 274.710938 19.566406 274.589844 19.542969 274.488281 19.496094 C 274.386719 19.441406 274.304688 19.367188 274.242188 19.273438 C 274.183594 19.179688 274.15625 19.074219 274.15625 18.949219 C 274.15625 18.847656 274.179688 18.753906 274.226562 18.671875 C 274.273438 18.585938 274.332031 18.515625 274.40625 18.460938 C 274.480469 18.40625 274.5625 18.355469 274.65625 18.308594 C 274.746094 18.25 274.839844 18.207031 274.945312 18.167969 C 275.136719 18.09375 275.316406 18.011719 275.484375 17.914062 C 275.554688 17.878906 275.609375 17.828125 275.648438 17.761719 C 275.691406 17.699219 275.71875 17.628906 275.71875 17.550781 C 275.71875 17.367188 275.667969 17.226562 275.578125 17.132812 C 275.496094 17.03125 275.367188 16.976562 275.191406 16.976562 C 275.070312 16.976562 274.957031 17 274.847656 17.035156 C 274.746094 17.074219 274.667969 17.125 274.613281 17.1875 C 274.714844 17.1875 274.796875 17.222656 274.863281 17.285156 C 274.921875 17.34375 274.957031 17.410156 274.957031 17.480469 C 274.957031 17.558594 274.9375 17.621094 274.902344 17.675781 C 274.875 17.726562 274.835938 17.769531 274.777344 17.804688 C 274.730469 17.832031 274.675781 17.84375 274.613281 17.84375 C 274.511719 17.84375 274.421875 17.808594 274.351562 17.734375 C 274.273438 17.660156 274.242188 17.5625 274.242188 17.441406 C 274.242188 17.367188 274.261719 17.292969 274.308594 17.214844 C 274.355469 17.132812 274.421875 17.054688 274.503906 16.976562 C 274.585938 16.90625 274.695312 16.84375 274.835938 16.796875 C 274.980469 16.742188 275.136719 16.710938 275.304688 16.710938 C 275.441406 16.710938 275.566406 16.734375 275.675781 16.769531 C 275.785156 16.796875 275.886719 16.84375 275.980469 16.910156 C 276.0625 16.984375 276.125 17.082031 276.171875 17.203125 C 276.226562 17.324219 276.253906 17.464844 276.253906 17.621094 L 276.253906 18.78125 C 276.253906 18.859375 276.261719 18.921875 276.28125 18.976562 C 276.300781 19.035156 276.332031 19.085938 276.378906 19.132812 C 276.425781 19.179688 276.480469 19.203125 276.546875 19.203125 C 276.753906 19.203125 276.863281 19.054688 276.863281 18.753906 L 276.863281 18.378906 L 277.136719 18.378906 L 277.136719 18.710938 C 277.136719 18.875 277.117188 19.011719 277.082031 19.132812 C 277.046875 19.246094 276.992188 19.335938 276.929688 19.398438 C 276.867188 19.453125 276.792969 19.496094 276.710938 19.523438 C 276.636719 19.550781 276.546875 19.566406 276.449219 19.566406 C 276.328125 19.566406 276.21875 19.542969 276.117188 19.496094 C 276.023438 19.449219 275.945312 19.378906 275.882812 19.285156 C 275.816406 19.183594 275.777344 19.070312 275.757812 18.9375 C 275.710938 19.058594 275.640625 19.167969 275.550781 19.257812 C 275.457031 19.351562 275.347656 19.425781 275.21875 19.480469 C 275.101562 19.539062 274.976562 19.566406 274.847656 19.566406 Z M 274.984375 19.203125 C 275.085938 19.203125 275.195312 19.171875 275.316406 19.105469 C 275.433594 19.042969 275.53125 18.957031 275.605469 18.851562 C 275.679688 18.75 275.71875 18.652344 275.71875 18.558594 L 275.71875 18.027344 C 275.625 18.121094 275.511719 18.210938 275.371094 18.292969 C 275.242188 18.378906 275.125 18.445312 275.011719 18.488281 C 274.921875 18.539062 274.839844 18.597656 274.777344 18.671875 C 274.714844 18.738281 274.683594 18.820312 274.683594 18.921875 C 274.683594 19.007812 274.703125 19.078125 274.75 19.132812 C 274.804688 19.179688 274.882812 19.203125 274.984375 19.203125 Z M 274.984375 19.203125 " fill-opacity="1" fill-rule="nonzero"/><path fill="#000000" d="M 277.234375 19.214844 L 277.71875 19.214844 L 277.71875 17.078125 L 277.234375 17.078125 L 277.234375 16.796875 L 278.171875 16.753906 L 278.242188 17.300781 C 278.285156 17.179688 278.355469 17.078125 278.449219 16.992188 C 278.550781 16.902344 278.65625 16.832031 278.765625 16.78125 C 278.882812 16.738281 279.003906 16.710938 279.125 16.710938 C 279.179688 16.710938 279.226562 16.71875 279.261719 16.726562 C 279.308594 16.738281 279.359375 16.746094 279.414062 16.753906 C 279.476562 16.777344 279.53125 16.796875 279.582031 16.824219 C 279.625 16.851562 279.671875 16.894531 279.71875 16.949219 C 279.761719 17 279.800781 17.054688 279.828125 17.117188 C 279.863281 17.183594 279.890625 17.269531 279.910156 17.371094 C 279.9375 17.464844 279.953125 17.578125 279.953125 17.707031 L 279.953125 19.214844 L 280.464844 19.214844 L 280.464844 19.496094 L 278.960938 19.496094 L 278.960938 19.214844 L 279.414062 19.214844 L 279.414062 17.707031 C 279.414062 17.492188 279.375 17.335938 279.289062 17.230469 C 279.207031 17.117188 279.085938 17.0625 278.933594 17.0625 C 278.839844 17.0625 278.753906 17.082031 278.667969 17.117188 C 278.59375 17.15625 278.53125 17.203125 278.476562 17.257812 C 278.429688 17.324219 278.386719 17.398438 278.351562 17.480469 C 278.3125 17.566406 278.289062 17.648438 278.285156 17.734375 C 278.261719 17.816406 278.253906 17.910156 278.253906 18.011719 L 278.253906 19.214844 L 278.699219 19.214844 L 278.699219 19.496094 L 277.234375 19.496094 Z M 277.234375 19.214844 " fill-opacity="1" fill-rule="nonzero"/><path fill="#000000" d="M 283.300781 19.550781 C 283.125 19.550781 282.972656 19.503906 282.84375 19.410156 C 282.714844 19.320312 282.597656 19.179688 282.488281 18.992188 L 281.988281 18.125 L 281.574219 18.445312 L 281.574219 19.214844 L 282.003906 19.214844 L 282.003906 19.496094 L 280.539062 19.496094 L 280.539062 19.214844 L 281.050781 19.214844 L 281.050781 16.011719 L 280.539062 16.011719 L 280.539062 15.707031 L 281.574219 15.707031 L 281.574219 18.054688 L 282.625 17.078125 L 282.15625 17.078125 L 282.15625 16.796875 L 283.644531 16.796875 L 283.644531 17.078125 L 283.164062 17.078125 L 282.308594 17.914062 C 282.351562 17.980469 282.417969 18.078125 282.5 18.210938 C 282.589844 18.359375 282.664062 18.480469 282.722656 18.574219 C 282.785156 18.65625 282.851562 18.746094 282.929688 18.839844 C 283 18.945312 283.078125 19.019531 283.164062 19.078125 C 283.246094 19.125 283.328125 19.144531 283.410156 19.144531 C 283.5 19.144531 283.589844 19.132812 283.671875 19.105469 L 283.742188 19.441406 C 283.667969 19.488281 283.597656 19.511719 283.535156 19.523438 C 283.46875 19.542969 283.390625 19.550781 283.300781 19.550781 Z M 283.300781 19.550781 " fill-opacity="1" fill-rule="nonzero"/><path fill="#000000" d="M 284.554688 16.320312 C 284.480469 16.320312 284.417969 16.304688 284.363281 16.265625 C 284.308594 16.230469 284.257812 16.179688 284.226562 16.125 C 284.199219 16.070312 284.183594 16.007812 284.183594 15.941406 C 284.183594 15.878906 284.199219 15.816406 284.226562 15.761719 C 284.257812 15.699219 284.308594 15.648438 284.363281 15.621094 C 284.417969 15.585938 284.480469 15.566406 284.554688 15.566406 C 284.617188 15.566406 284.679688 15.585938 284.734375 15.621094 C 284.789062 15.648438 284.832031 15.699219 284.859375 15.761719 C 284.894531 15.816406 284.914062 15.878906 284.914062 15.941406 C 284.914062 16.007812 284.894531 16.070312 284.859375 16.125 C 284.832031 16.179688 284.789062 16.230469 284.734375 16.265625 C 284.679688 16.304688 284.617188 16.320312 284.554688 16.320312 Z M 283.851562 19.496094 L 283.851562 19.214844 L 284.335938 19.214844 L 284.335938 17.078125 L 283.851562 17.078125 L 283.851562 16.796875 L 284.859375 16.796875 L 284.859375 19.214844 L 285.355469 19.214844 L 285.355469 19.496094 Z M 283.851562 19.496094 " fill-opacity="1" fill-rule="nonzero"/><path fill="#000000" d="M 285.488281 19.214844 L 285.972656 19.214844 L 285.972656 17.078125 L 285.488281 17.078125 L 285.488281 16.796875 L 286.429688 16.753906 L 286.496094 17.300781 C 286.542969 17.179688 286.609375 17.078125 286.703125 16.992188 C 286.804688 16.902344 286.910156 16.832031 287.023438 16.78125 C 287.140625 16.738281 287.261719 16.710938 287.378906 16.710938 C 287.4375 16.710938 287.480469 16.71875 287.519531 16.726562 C 287.5625 16.738281 287.613281 16.746094 287.671875 16.753906 C 287.730469 16.777344 287.789062 16.796875 287.835938 16.824219 C 287.878906 16.851562 287.925781 16.894531 287.972656 16.949219 C 288.019531 17 288.058594 17.054688 288.085938 17.117188 C 288.117188 17.183594 288.144531 17.269531 288.167969 17.371094 C 288.195312 17.464844 288.207031 17.578125 288.207031 17.707031 L 288.207031 19.214844 L 288.71875 19.214844 L 288.71875 19.496094 L 287.214844 19.496094 L 287.214844 19.214844 L 287.671875 19.214844 L 287.671875 17.707031 C 287.671875 17.492188 287.628906 17.335938 287.546875 17.230469 C 287.464844 17.117188 287.34375 17.0625 287.1875 17.0625 C 287.09375 17.0625 287.007812 17.082031 286.925781 17.117188 C 286.847656 17.15625 286.789062 17.203125 286.730469 17.257812 C 286.683594 17.324219 286.640625 17.398438 286.609375 17.480469 C 286.570312 17.566406 286.546875 17.648438 286.539062 17.734375 C 286.519531 17.816406 286.511719 17.910156 286.511719 18.011719 L 286.511719 19.214844 L 286.953125 19.214844 L 286.953125 19.496094 L 285.488281 19.496094 Z M 285.488281 19.214844 " fill-opacity="1" fill-rule="nonzero"/><path fill="#000000" d="M 290.105469 20.839844 C 289.75 20.839844 289.488281 20.753906 289.320312 20.585938 C 289.226562 20.492188 289.183594 20.378906 289.183594 20.238281 C 289.183594 20.113281 289.21875 20.015625 289.292969 19.945312 C 289.375 19.878906 289.476562 19.84375 289.597656 19.84375 C 289.660156 19.84375 289.714844 19.859375 289.761719 19.886719 C 289.816406 19.921875 289.859375 19.964844 289.886719 20.011719 C 289.914062 20.070312 289.929688 20.128906 289.929688 20.195312 C 289.929688 20.257812 289.902344 20.324219 289.859375 20.390625 C 289.820312 20.453125 289.777344 20.503906 289.722656 20.53125 C 289.832031 20.558594 289.929688 20.574219 290.023438 20.574219 C 290.28125 20.574219 290.472656 20.476562 290.605469 20.277344 C 290.730469 20.082031 290.796875 19.804688 290.796875 19.441406 L 290.796875 18.992188 C 290.757812 19.097656 290.703125 19.195312 290.632812 19.285156 C 290.554688 19.371094 290.464844 19.441406 290.355469 19.496094 C 290.253906 19.542969 290.140625 19.566406 290.023438 19.566406 C 289.886719 19.566406 289.753906 19.542969 289.636719 19.496094 C 289.515625 19.441406 289.417969 19.367188 289.335938 19.273438 C 289.25 19.179688 289.175781 19.078125 289.113281 18.964844 C 289.058594 18.84375 289.015625 18.710938 288.988281 18.574219 C 288.960938 18.433594 288.949219 18.292969 288.949219 18.152344 C 288.949219 17.976562 288.96875 17.804688 289.015625 17.636719 C 289.0625 17.460938 289.132812 17.308594 289.222656 17.175781 C 289.3125 17.035156 289.429688 16.921875 289.570312 16.839844 C 289.707031 16.753906 289.863281 16.710938 290.039062 16.710938 C 290.136719 16.710938 290.238281 16.738281 290.34375 16.78125 C 290.453125 16.832031 290.550781 16.894531 290.632812 16.976562 C 290.714844 17.0625 290.769531 17.160156 290.796875 17.273438 L 290.867188 16.796875 L 291.695312 16.796875 L 291.695312 17.089844 L 291.335938 17.089844 L 291.335938 19.371094 C 291.335938 19.695312 291.273438 19.976562 291.15625 20.210938 C 291.089844 20.339844 291.011719 20.449219 290.921875 20.546875 C 290.828125 20.636719 290.714844 20.707031 290.578125 20.753906 C 290.4375 20.8125 290.28125 20.839844 290.105469 20.839844 Z M 290.136719 19.246094 C 290.273438 19.246094 290.398438 19.195312 290.507812 19.089844 C 290.617188 18.988281 290.695312 18.859375 290.742188 18.699219 C 290.796875 18.542969 290.824219 18.378906 290.824219 18.210938 C 290.824219 17.976562 290.789062 17.777344 290.726562 17.609375 C 290.671875 17.433594 290.59375 17.296875 290.492188 17.203125 C 290.390625 17.101562 290.273438 17.046875 290.136719 17.046875 C 290.003906 17.046875 289.890625 17.101562 289.789062 17.203125 C 289.6875 17.308594 289.609375 17.4375 289.554688 17.59375 C 289.507812 17.753906 289.488281 17.925781 289.488281 18.109375 C 289.488281 18.410156 289.53125 18.667969 289.625 18.878906 C 289.679688 18.992188 289.75 19.082031 289.832031 19.144531 C 289.914062 19.210938 290.015625 19.246094 290.136719 19.246094 Z M 290.136719 19.246094 " fill-opacity="1" fill-rule="nonzero"/></svg>